<svg xmlns="http://www.w3.org/2000/svg" viewBox="0 0 29.6 36.49"><defs><style>.cls-1{fill:none;stroke:#fff;stroke-miterlimit:10;}</style></defs><title>2w</title><g id="Capa_2" data-name="Capa 2"><g id="Capa_1-2" data-name="Capa 1"><path class="cls-1" d="M20.77,26.17l.11,0a17.41,17.41,0,0,0,5.49,1.1l.6,0h0A1.69,1.69,0,0,0,28.57,26a31.06,31.06,0,0,0,.52-5.34v0a1.2,1.2,0,0,0-1.2-1.15,1.39,1.39,0,0,0-.63.15A16.88,16.88,0,0,1,21,21.08a2.48,2.48,0,0,1-.38,0c-.88,0-1.29-.3-1.29-.5s.17-.3.55-.31a18.85,18.85,0,0,0,7.75-1.55,1.47,1.47,0,0,0,.83-1.92,17.85,17.85,0,0,0-2.07-4.47,1.35,1.35,0,0,0-1.15-.67,1.45,1.45,0,0,0-1,.39,9.39,9.39,0,0,1-4.6,2.3h-.12c-.19,0-.3-.08-.32-.16s.09-.21.14-.25a11,11,0,0,1,1.27-.71,20.56,20.56,0,0,0,3.07-1.84,1.5,1.5,0,0,0,.59-1,1.55,1.55,0,0,0-.36-1.17h0a18.79,18.79,0,0,0-1.92-2h0a1.38,1.38,0,0,0-1-.38,1.48,1.48,0,0,0-1.12.55,6.7,6.7,0,0,1-1.51,1.3,1.37,1.37,0,0,1-.72.24.4.4,0,0,1-.31-.1s0-.18.23-.38a9.29,9.29,0,0,1,.74-.6,6.07,6.07,0,0,0,1-.86,1.51,1.51,0,0,0,.4-1.12,1.48,1.48,0,0,0-.54-1h0l-.86-.69a20.66,20.66,0,0,1-2.91-2.59L14.8.8l-.58.72a21.25,21.25,0,0,1-2.91,2.59l-.87.69h0A1.5,1.5,0,0,0,10.3,7a6,6,0,0,0,1,.85,9.29,9.29,0,0,1,.74.6c.21.2.24.35.23.38a.4.4,0,0,1-.31.1,1.37,1.37,0,0,1-.72-.24A6.51,6.51,0,0,1,9.73,7.36a1.52,1.52,0,0,0-1.12-.54,1.42,1.42,0,0,0-1,.38h0a18.79,18.79,0,0,0-1.92,2h0a1.55,1.55,0,0,0-.36,1.17,1.45,1.45,0,0,0,.58,1A21.08,21.08,0,0,0,9,13.26a9.46,9.46,0,0,1,1.27.71c.06,0,.19.15.15.25s-.13.16-.32.16H10a9.46,9.46,0,0,1-4.61-2.3,1.43,1.43,0,0,0-1-.39,1.38,1.38,0,0,0-1.16.67,18.17,18.17,0,0,0-2.06,4.47A1.47,1.47,0,0,0,2,18.74a18.85,18.85,0,0,0,7.75,1.55c.34,0,.55.16.55.31s-.42.5-1.29.5a2.48,2.48,0,0,1-.38,0,16.84,16.84,0,0,1-6.31-1.45,1.42,1.42,0,0,0-.63-.15,1.19,1.19,0,0,0-1.2,1.15v0A31.85,31.85,0,0,0,1,26,1.71,1.71,0,0,0,2.6,27.27h0l.6,0a17.41,17.41,0,0,0,5.49-1.1l.1,0A.15.15,0,0,1,9,26.3c0,.15-.16.33-.47.44a13.41,13.41,0,0,1-4.46,1H3.69a1.13,1.13,0,0,0-1,.62,1.26,1.26,0,0,0,.16,1.31v0a8.17,8.17,0,0,0,6.44,3.07h0a7.39,7.39,0,0,0,2.8-.52,3.92,3.92,0,0,0,2-1.75V36h1.48V30.44a3.89,3.89,0,0,0,2,1.75,7.48,7.48,0,0,0,2.81.52,8.17,8.17,0,0,0,6.44-3.07v0A1.26,1.26,0,0,0,27,28.31a1.14,1.14,0,0,0-1.05-.62h-.36a13.36,13.36,0,0,1-4.46-1c-.31-.11-.49-.29-.47-.44a.16.16,0,0,1,.15-.13Z"/><path class="cls-1" d="M20.35,32.71a8.17,8.17,0,0,0,6.44-3.07v0A1.26,1.26,0,0,0,27,28.31a1.14,1.14,0,0,0-1.05-.62h-.36a13.36,13.36,0,0,1-4.46-1c-.31-.11-.49-.29-.47-.44a.16.16,0,0,1,.15-.13h0l.11,0a17.41,17.41,0,0,0,5.49,1.1l.6,0h0A1.69,1.69,0,0,0,28.57,26a31.06,31.06,0,0,0,.52-5.34v0a1.2,1.2,0,0,0-1.2-1.15,1.39,1.39,0,0,0-.63.15A16.88,16.88,0,0,1,21,21.08a2.48,2.48,0,0,1-.38,0c-.88,0-1.29-.3-1.29-.5s.17-.3.55-.31a18.85,18.85,0,0,0,7.75-1.55,1.47,1.47,0,0,0,.83-1.92,17.85,17.85,0,0,0-2.07-4.47,1.35,1.35,0,0,0-1.15-.67,1.45,1.45,0,0,0-1,.39,9.39,9.39,0,0,1-4.6,2.3h-.12c-.19,0-.3-.08-.32-.16s.09-.21.14-.25a11,11,0,0,1,1.27-.71,20.56,20.56,0,0,0,3.07-1.84,1.5,1.5,0,0,0,.59-1,1.55,1.55,0,0,0-.36-1.17h0a18.79,18.79,0,0,0-1.92-2h0a1.38,1.38,0,0,0-1-.38,1.48,1.48,0,0,0-1.12.55,6.7,6.7,0,0,1-1.51,1.3,1.37,1.37,0,0,1-.72.24.4.4,0,0,1-.31-.1s0-.18.23-.38a9.29,9.29,0,0,1,.74-.6,6.07,6.07,0,0,0,1-.86,1.51,1.51,0,0,0,.4-1.12,1.48,1.48,0,0,0-.54-1h0l-.86-.69a20.66,20.66,0,0,1-2.91-2.59L14.8.8l-.58.72a21.25,21.25,0,0,1-2.91,2.59l-.87.69h0A1.5,1.5,0,0,0,10.3,7a6,6,0,0,0,1,.85,9.29,9.29,0,0,1,.74.6c.21.2.24.35.23.38a.4.4,0,0,1-.31.1,1.37,1.37,0,0,1-.72-.24A6.51,6.51,0,0,1,9.73,7.36a1.52,1.52,0,0,0-1.12-.54,1.42,1.42,0,0,0-1,.38h0a18.79,18.79,0,0,0-1.92,2h0a1.55,1.55,0,0,0-.36,1.17,1.45,1.45,0,0,0,.58,1A21.08,21.08,0,0,0,9,13.26a9.46,9.46,0,0,1,1.27.71c.06,0,.19.15.15.25s-.13.16-.32.16H10a9.46,9.46,0,0,1-4.61-2.3,1.43,1.43,0,0,0-1-.39,1.38,1.38,0,0,0-1.16.67,18.17,18.17,0,0,0-2.06,4.47A1.47,1.47,0,0,0,2,18.74a18.85,18.85,0,0,0,7.75,1.55c.34,0,.55.16.55.31s-.42.5-1.29.5a2.48,2.48,0,0,1-.38,0,16.84,16.84,0,0,1-6.31-1.45,1.42,1.42,0,0,0-.63-.15,1.19,1.19,0,0,0-1.2,1.15v0A31.85,31.85,0,0,0,1,26,1.71,1.71,0,0,0,2.6,27.27h0l.6,0a17.41,17.41,0,0,0,5.49-1.1l.1,0A.15.15,0,0,1,9,26.3c0,.15-.16.33-.47.44a13.41,13.41,0,0,1-4.46,1H3.69a1.13,1.13,0,0,0-1,.62,1.26,1.26,0,0,0,.16,1.31v0a8.17,8.17,0,0,0,6.44,3.07"/><path class="cls-1" d="M15.54,36V30.44a3.89,3.89,0,0,0,2,1.75"/><path class="cls-1" d="M12.05,32.19a3.92,3.92,0,0,0,2-1.75V36"/></g></g></svg>