<svg xmlns="http://www.w3.org/2000/svg" viewBox="0 0 31.23 31.22"><defs><style>.cls-1{fill:#c5946e;}</style></defs><title>3b</title><g id="Capa_2" data-name="Capa 2"><g id="Capa_1-2" data-name="Capa 1"><path class="cls-1" d="M30.37,4.57a2.9,2.9,0,0,0-3.93-.17L16.27,12.87H0V14.7H1.91A18.57,18.57,0,0,0,7.33,26.92l0,0v4.25H23.9V27l.05,0A18.57,18.57,0,0,0,29.37,14.7h1.85V12.87H26.91l3.64-4.36A2.92,2.92,0,0,0,30.37,4.57Zm-8.3,24.82H9.21V27.5H22.07Zm.59-3.76-.05,0H8.67l0,0A16.68,16.68,0,0,1,3.74,14.7h23.8A16.66,16.66,0,0,1,22.66,25.63Zm6.48-18.3-4.61,5.54h-5.4L27.61,5.8a1.09,1.09,0,0,1,1.53,1.53Z"/><path class="cls-1" d="M11,11V7.32H12A6.44,6.44,0,0,0,18.42.91V0H15.67a6.46,6.46,0,0,0-5.54,3.12A6.41,6.41,0,0,0,4.63,0H1.89V.91a6.41,6.41,0,0,0,6.4,6.41h.92V11Zm4.63-9.21h.82A4.63,4.63,0,0,1,12,5.49h-.82A4.62,4.62,0,0,1,15.67,1.83ZM8.29,5.49A4.59,4.59,0,0,1,3.81,1.83h.82A4.59,4.59,0,0,1,9.12,5.49Z"/></g></g></svg>
