<svg xmlns="http://www.w3.org/2000/svg" viewBox="0 0 31.73 31.72"><defs><style>.cls-1{fill:#fff;stroke:#fff;stroke-miterlimit:10;stroke-width:0.5px;}</style></defs><title>3w</title><g id="Capa_2" data-name="Capa 2"><g id="Capa_1-2" data-name="Capa 1"><path class="cls-1" d="M30.62,4.82a2.9,2.9,0,0,0-3.93-.17L16.52,13.12H.25V15H2.16A18.57,18.57,0,0,0,7.58,27.17l0,0v4.25H24.15V27.22l.05,0A18.57,18.57,0,0,0,29.62,15h1.85V13.12H27.16L30.8,8.76A2.92,2.92,0,0,0,30.62,4.82Zm-8.3,24.82H9.46V27.75H22.32Zm.59-3.76-.05,0H8.92l0,0A16.68,16.68,0,0,1,4,15h23.8A16.66,16.66,0,0,1,22.91,25.88Zm6.48-18.3-4.61,5.54h-5.4l8.48-7.07a1.09,1.09,0,0,1,1.53,1.53Z"/><path class="cls-1" d="M11.29,11.29V7.57h.91a6.44,6.44,0,0,0,6.47-6.41V.25H15.92a6.46,6.46,0,0,0-5.54,3.12A6.41,6.41,0,0,0,4.88.25H2.14v.91a6.41,6.41,0,0,0,6.4,6.41h.92v3.72Zm4.63-9.21h.82A4.63,4.63,0,0,1,12.2,5.74h-.82A4.62,4.62,0,0,1,15.92,2.08ZM8.54,5.74A4.59,4.59,0,0,1,4.06,2.08h.82A4.59,4.59,0,0,1,9.37,5.74Z"/></g></g></svg>