<svg xmlns="http://www.w3.org/2000/svg" viewBox="0 0 37.07 37.06"><defs><style>.cls-1{fill:#c5946e;}</style></defs><title>calidad-b</title><g id="Capa_2" data-name="Capa 2"><g id="Capa_1-2" data-name="Capa 1"><path class="cls-1" d="M36.92,18.18,34,15.24a8.88,8.88,0,0,0-2.53-1.77l-.1-.05,0-.1a9.55,9.55,0,0,0,.87-3.94V5.3a.5.5,0,0,0-.5-.49H27.68a9.38,9.38,0,0,0-3.94.86l-.1,0-.05-.1a8.58,8.58,0,0,0-1.76-2.53L18.88.14a.49.49,0,0,0-.69,0l-3,2.95a8.81,8.81,0,0,0-1.77,2.53l0,.1-.1,0a9.43,9.43,0,0,0-3.95-.86H5.3a.49.49,0,0,0-.49.49V9.38a9.38,9.38,0,0,0,.86,3.94l0,.1-.1.05a8.88,8.88,0,0,0-2.53,1.77L.14,18.18a.5.5,0,0,0,0,.7l2.95,2.94a8.88,8.88,0,0,0,2.53,1.77l.1.05,0,.1a9.54,9.54,0,0,0-.86,3.94v4.08a.49.49,0,0,0,.49.49H9.38a9.46,9.46,0,0,0,3.95-.86l.1-.05,0,.1A8.81,8.81,0,0,0,15.24,34l3,3a.49.49,0,0,0,.34.14.5.5,0,0,0,.35-.14l2.95-3a8.58,8.58,0,0,0,1.76-2.53l.05-.1.1.05a9.42,9.42,0,0,0,3.94.86h4.08a.5.5,0,0,0,.5-.49V27.68a9.55,9.55,0,0,0-.87-3.94l0-.1.1-.05A8.88,8.88,0,0,0,34,21.82l2.94-2.94a.49.49,0,0,0,.15-.35A.47.47,0,0,0,36.92,18.18ZM22.63,19a8.53,8.53,0,0,1,6,2.5l.12.13A8.35,8.35,0,0,1,29.87,23l.08.12-.14,0a7.68,7.68,0,0,1-2.14.3h-.26a7.93,7.93,0,0,1-5.58-2.32L19.72,19Zm7.18-5.12.14,0-.08.13a8.81,8.81,0,0,1-1.1,1.34l-.13.13a8.53,8.53,0,0,1-6,2.5H19.72l2.11-2.11a7.9,7.9,0,0,1,5.6-2.32h.24A8.18,8.18,0,0,1,29.81,13.9Zm1.46-4.52a8.44,8.44,0,0,1-.8,3.6l0,.08-.09,0a8.9,8.9,0,0,0-2.67-.4h-.24a8.88,8.88,0,0,0-3.62.77l-.26.12.11-.27a8.67,8.67,0,0,0,.78-3.62V9.39A9,9,0,0,0,24,6.72l0-.09.09,0a8.58,8.58,0,0,1,3.59-.8h3.59Zm-7.82.25a7.93,7.93,0,0,1-2.32,5.61L19,17.34V14.45a8.56,8.56,0,0,1,2.5-6l.13-.13A8.81,8.81,0,0,1,23,7.19l.13-.08,0,.14a8.18,8.18,0,0,1,.29,2.14Zm-.76-3.4A9.57,9.57,0,0,0,21,7.6l-.13.12a9.49,9.49,0,0,0-2.19,3.43l-.11.29-.1-.29a9.63,9.63,0,0,0-2.19-3.43l-.13-.13a10.37,10.37,0,0,0-1.73-1.36l-.09-.05,0-.08h0a8,8,0,0,1,1.6-2.32l2.6-2.6,2.6,2.6a7.89,7.89,0,0,1,1.6,2.32l0,.08ZM18,14.45v2.9l-2.11-2.11a7.93,7.93,0,0,1-2.32-5.61V9.39a7.66,7.66,0,0,1,.3-2.13l0-.15.12.09a8.39,8.39,0,0,1,1.34,1.09l.13.13A8.51,8.51,0,0,1,18,14.45ZM7.26,23.16l-.14-.05L7.2,23a7.93,7.93,0,0,1,1.1-1.34l.12-.13a8.53,8.53,0,0,1,6-2.5h2.92l-2.11,2.11a8,8,0,0,1-5.61,2.32H9.39A8.1,8.1,0,0,1,7.26,23.16ZM14.43,18a8.53,8.53,0,0,1-6-2.5l-.13-.13A8.19,8.19,0,0,1,7.2,14.07L7.11,14l.15,0a7.66,7.66,0,0,1,2.13-.3h.26a8,8,0,0,1,5.59,2.32L17.35,18ZM13,6.72a9,9,0,0,0-.41,2.67v.24a8.81,8.81,0,0,0,.77,3.62l.12.27-.26-.12a8.9,8.9,0,0,0-3.63-.77H9.39a8.89,8.89,0,0,0-2.66.4l-.09,0,0-.09a8.71,8.71,0,0,1-.8-3.59V5.79H9.38a8.6,8.6,0,0,1,3.6.8l.09,0Zm-7.25,21a8.6,8.6,0,0,1,.8-3.6l0-.08.1,0a8.89,8.89,0,0,0,2.66.4h.24a8.9,8.9,0,0,0,3.63-.77l.26-.12-.12.27a8.81,8.81,0,0,0-.77,3.62v.24A9,9,0,0,0,13,30.34l0,.09-.08,0a8.6,8.6,0,0,1-3.6.8H5.79Zm7.82-.25a8,8,0,0,1,2.32-5.61L18,19.72v2.89a8.47,8.47,0,0,1-2.5,6l-.12.13a9.45,9.45,0,0,1-1.34,1.1L14,30l0-.15a7.66,7.66,0,0,1-.3-2.13Zm.77,3.4a9.57,9.57,0,0,0,1.73-1.37l.13-.12a9.67,9.67,0,0,0,2.19-3.44l.1-.28.11.28a9.45,9.45,0,0,0,2.19,3.44l.13.12a9.57,9.57,0,0,0,1.73,1.37l.08.05,0,.09a7.84,7.84,0,0,1-1.6,2.31l-2.6,2.6-2.6-2.6A8.17,8.17,0,0,1,14.33,31l0-.09ZM19,22.61V19.72l2.1,2.1a7.89,7.89,0,0,1,2.32,5.61v.24a8,8,0,0,1-.29,2.13l0,.15L23,29.86a9.38,9.38,0,0,1-1.34-1.09l-.12-.13A8.47,8.47,0,0,1,19,22.61Zm5,7.73a9,9,0,0,0,.41-2.67v-.24a8.67,8.67,0,0,0-.78-3.62l-.11-.27.26.12a8.88,8.88,0,0,0,3.62.77h.24a9,9,0,0,0,2.67-.4l.09,0,0,.08a8.48,8.48,0,0,1,.8,3.6v3.59H27.68a8.58,8.58,0,0,1-3.59-.8l-.09,0Zm6.85-7.57-.05-.08A9.49,9.49,0,0,0,29.47,21l-.13-.13a9.54,9.54,0,0,0-3.43-2.19l-.28-.1.28-.1a9.44,9.44,0,0,0,3.43-2.2l.13-.12a9.59,9.59,0,0,0,1.36-1.74l.05-.08.09,0a7.84,7.84,0,0,1,2.31,1.6l2.6,2.6-2.6,2.6A7.9,7.9,0,0,1,31,22.73ZM3.68,21.24l.11-.11-2.6-2.6,2.6-2.6a7.71,7.71,0,0,1,2.31-1.6l.09,0,0,.08A9.16,9.16,0,0,0,7.6,16.11l.12.12a9.56,9.56,0,0,0,3.44,2.2l.28.1-.28.1a9.54,9.54,0,0,0-3.43,2.19L7.6,21a9.16,9.16,0,0,0-1.36,1.74l0,.08-.09,0a7.77,7.77,0,0,1-2.31-1.6l-.11.11Z"/></g></g></svg>