<svg xmlns="http://www.w3.org/2000/svg" viewBox="0 0 108 38.25"><defs><style>.cls-1{fill:#c5946e;}</style></defs><title>capilab-logo</title><g id="Capa_2" data-name="Capa 2"><g id="Capa_1-2" data-name="Capa 1"><path class="cls-1" d="M4.72,35.87h-.8v-9H5V30.2a2,2,0,0,1,.49-.43,3.15,3.15,0,0,1,.61-.3,2.38,2.38,0,0,1,.84-.14,2.93,2.93,0,0,1,1.17.25,3,3,0,0,1,1,.68,3.33,3.33,0,0,1,.65,1A3.63,3.63,0,0,1,10,32.64,3.54,3.54,0,0,1,9.73,34,3.27,3.27,0,0,1,9.08,35a3.06,3.06,0,0,1-1,.68,2.93,2.93,0,0,1-1.18.24,2.7,2.7,0,0,1-.85-.11,2.82,2.82,0,0,1-.6-.27,2.44,2.44,0,0,1-.49-.4Zm.14-3.23a2.58,2.58,0,0,0,.16.94,2.49,2.49,0,0,0,.44.73,2,2,0,0,0,.64.47,1.93,1.93,0,0,0,1.54,0,2,2,0,0,0,.64-.47,2.29,2.29,0,0,0,.44-.73,2.58,2.58,0,0,0,.16-.94A2.43,2.43,0,0,0,8.28,31a2,2,0,0,0-1.41-.63,1.88,1.88,0,0,0-.77.17,1.94,1.94,0,0,0-.64.46A2.78,2.78,0,0,0,5,31.7,2.54,2.54,0,0,0,4.86,32.64Z"/><path class="cls-1" d="M16.65,34.15a4.3,4.3,0,0,1-.41.67,2.66,2.66,0,0,1-.58.58,3.07,3.07,0,0,1-.74.39,2.75,2.75,0,0,1-.93.15,2.93,2.93,0,0,1-1.18-.24,2.85,2.85,0,0,1-1-.68,3.33,3.33,0,0,1-.65-1A3.8,3.8,0,0,1,11,32.64a3.85,3.85,0,0,1,.23-1.34,3.31,3.31,0,0,1,.64-1,2.91,2.91,0,0,1,.95-.68,2.74,2.74,0,0,1,1.13-.25,2.79,2.79,0,0,1,1.11.23,2.84,2.84,0,0,1,.91.66,3.06,3.06,0,0,1,.62,1,3.75,3.75,0,0,1,.23,1.33,1.66,1.66,0,0,1,0,.24c0,.07,0,.13,0,.17s0,.11,0,.16h-4.6a1.88,1.88,0,0,0,.19.68,2,2,0,0,0,.42.57,1.82,1.82,0,0,0,.58.4,1.64,1.64,0,0,0,.68.15,1.44,1.44,0,0,0,.53-.09,2.44,2.44,0,0,0,.43-.2,1.24,1.24,0,0,0,.33-.25,1.46,1.46,0,0,0,.21-.25Zm-2.73-3.81a1.52,1.52,0,0,0-.63.14,2.07,2.07,0,0,0-.54.39,2.14,2.14,0,0,0-.41.59,2.61,2.61,0,0,0-.22.75h3.52a2.35,2.35,0,0,0-.6-1.36A1.49,1.49,0,0,0,13.92,30.34Z"/><path class="cls-1" d="M22.17,35.87h-.79v-9h1.08V30.2a1.85,1.85,0,0,1,.49-.43,2.79,2.79,0,0,1,.6-.3,2.38,2.38,0,0,1,.84-.14,2.94,2.94,0,0,1,2.14.93,3.33,3.33,0,0,1,.65,1,3.63,3.63,0,0,1,.24,1.34A3.54,3.54,0,0,1,27.18,34,3.27,3.27,0,0,1,26.53,35a2.85,2.85,0,0,1-1,.68,2.93,2.93,0,0,1-1.18.24,2.74,2.74,0,0,1-.85-.11,3,3,0,0,1-.59-.27,2.19,2.19,0,0,1-.49-.4Zm.14-3.23a2.58,2.58,0,0,0,.17.94,2.29,2.29,0,0,0,.44.73,1.93,1.93,0,0,0,.63.47,2.08,2.08,0,0,0,.77.16,2,2,0,0,0,.77-.16,1.87,1.87,0,0,0,.64-.47,2.13,2.13,0,0,0,.44-.73,2.58,2.58,0,0,0,.17-.94,2.54,2.54,0,0,0-.17-.94,2.33,2.33,0,0,0-.44-.73,1.9,1.9,0,0,0-.63-.46,1.85,1.85,0,0,0-1.55,0,1.9,1.9,0,0,0-.63.46,2.5,2.5,0,0,0-.61,1.67Z"/><path class="cls-1" d="M34.1,34.15a3.66,3.66,0,0,1-.41.67,2.42,2.42,0,0,1-.57.58,3,3,0,0,1-.75.39,2.75,2.75,0,0,1-.93.15,2.92,2.92,0,0,1-1.17-.24,3,3,0,0,1-1-.68,3.14,3.14,0,0,1-.64-1,3.59,3.59,0,0,1-.24-1.34,3.63,3.63,0,0,1,.24-1.34,3.29,3.29,0,0,1,.63-1,2.91,2.91,0,0,1,.95-.68,2.73,2.73,0,0,1,2.24,0,2.84,2.84,0,0,1,.91.66,3.06,3.06,0,0,1,.62,1,3.75,3.75,0,0,1,.23,1.33c0,.09,0,.17,0,.24s0,.13,0,.17l0,.16h-4.6a1.89,1.89,0,0,0,.2.68,2,2,0,0,0,.41.57,1.94,1.94,0,0,0,.58.4,1.64,1.64,0,0,0,.68.15,1.53,1.53,0,0,0,.54-.09,2.83,2.83,0,0,0,.43-.2,1.19,1.19,0,0,0,.32-.25,2.32,2.32,0,0,0,.22-.25Zm-2.73-3.81a1.52,1.52,0,0,0-.63.14,2.07,2.07,0,0,0-.54.39,2.14,2.14,0,0,0-.41.59,2.61,2.61,0,0,0-.22.75h3.52a2.34,2.34,0,0,0-.59-1.36A1.52,1.52,0,0,0,31.37,30.34Z"/><path class="cls-1" d="M38.11,29.33a2.64,2.64,0,0,1,1,.18,2.4,2.4,0,0,1,.77.48,2.12,2.12,0,0,1,.69,1.57v4.31h-.79l-.29-.71a2.38,2.38,0,0,1-.49.4,2.09,2.09,0,0,1-.6.27,2.74,2.74,0,0,1-.85.11,2.52,2.52,0,0,1-.89-.15,2.15,2.15,0,0,1-.67-.41,2.06,2.06,0,0,1-.44-.62,1.94,1.94,0,0,1-.16-.75,1.86,1.86,0,0,1,.19-.85,1.59,1.59,0,0,1,.64-.65,3.76,3.76,0,0,1,1.26-.44,11.3,11.3,0,0,1,2-.15v-.36a1.16,1.16,0,0,0-.38-.85,1.39,1.39,0,0,0-1-.37,1.37,1.37,0,0,0-.89.25,1.39,1.39,0,0,0-.4.69H35.67a2.27,2.27,0,0,1,.25-.76,2.24,2.24,0,0,1,.49-.62,2.29,2.29,0,0,1,.73-.42A3,3,0,0,1,38.11,29.33Zm-.57,5.61a2.26,2.26,0,0,0,.79-.14,1.91,1.91,0,0,0,.61-.35,1.65,1.65,0,0,0,.4-.48,1.21,1.21,0,0,0,.14-.54v-.5a11,11,0,0,0-1.56.08,3.22,3.22,0,0,0-.92.23.84.84,0,0,0-.43.36,1,1,0,0,0-.11.48.78.78,0,0,0,.29.59A1.13,1.13,0,0,0,37.54,34.94Z"/><path class="cls-1" d="M44.87,35.94a2.25,2.25,0,0,1-1-.2,2.53,2.53,0,0,1-.8-.58,2.8,2.8,0,0,1-.55-.88,3.25,3.25,0,0,1-.2-1.14V29.4h1.08v3.74a1.9,1.9,0,0,0,.13.73,1.78,1.78,0,0,0,.33.57,1.52,1.52,0,0,0,.5.37,1.47,1.47,0,0,0,.62.13,1.66,1.66,0,0,0,1.25-.49,1.78,1.78,0,0,0,.48-1.31V29.4h1.07v6.47H47l-.29-.71a2.32,2.32,0,0,1-.48.4,2.15,2.15,0,0,1-.59.27A2.38,2.38,0,0,1,44.87,35.94Z"/><path class="cls-1" d="M50.32,27.68h.94V29.4H52.7v1H51.26v3.38a1.2,1.2,0,0,0,.29.85,1.06,1.06,0,0,0,.79.3,1.09,1.09,0,0,0,.26,0l.1,0v.93a.46.46,0,0,1-.16.07,1.34,1.34,0,0,1-.49.07,1.74,1.74,0,0,1-.71-.15,2,2,0,0,1-1-1.12,2.42,2.42,0,0,1-.15-.88V30.41H49v-1h.51a.68.68,0,0,0,.78-.78Z"/><path class="cls-1" d="M53.41,29.4h1.15l1.95,5,1.93-5h1.15l-2.8,7.05A3.87,3.87,0,0,1,56,37.84a1.46,1.46,0,0,1-1,.41h-.16l-.14,0-.14,0v-.87a1.07,1.07,0,0,0,.74-.22,1.65,1.65,0,0,0,.41-.64l.29-.72Z"/><path class="cls-1" d="M60.53,35.94a.68.68,0,0,1-.52-.19.7.7,0,0,1-.2-.52.72.72,0,0,1,.2-.53.68.68,0,0,1,.52-.19.69.69,0,0,1,.52.19.72.72,0,0,1,.19.53,2.13,2.13,0,0,1-.18.9,2.43,2.43,0,0,1-.38.62,3,3,0,0,1-.58.49L60,37a1.87,1.87,0,0,0,.26-.3,2.39,2.39,0,0,0,.2-.33A1.48,1.48,0,0,0,60.53,35.94Z"/><path class="cls-1" d="M69.15,36a2.6,2.6,0,0,1-.77-.11,3,3,0,0,1-.59-.25,2.88,2.88,0,0,1-.51-.36l-.28.64H65.77v-9h1.66v3a2.33,2.33,0,0,1,.46-.32,3.54,3.54,0,0,1,.54-.22,2.18,2.18,0,0,1,.72-.11,2.81,2.81,0,0,1,1.18.25,3,3,0,0,1,1,.71A3.26,3.26,0,0,1,72,31.22a3.77,3.77,0,0,1,0,2.7A3.37,3.37,0,0,1,71.31,35a2.94,2.94,0,0,1-1,.7A2.82,2.82,0,0,1,69.15,36Zm-1.87-3.38a1.81,1.81,0,0,0,.48,1.31,1.58,1.58,0,0,0,1.18.48,1.56,1.56,0,0,0,1.17-.48,2,2,0,0,0,0-2.62,1.53,1.53,0,0,0-1.17-.49,1.55,1.55,0,0,0-1.18.49A1.79,1.79,0,0,0,67.28,32.57Z"/><path class="cls-1" d="M79.36,33.86a3,3,0,0,1-.4.75,3.17,3.17,0,0,1-.65.67,3.75,3.75,0,0,1-.86.48,3,3,0,0,1-1,.19,3,3,0,0,1-1.27-.27,3.36,3.36,0,0,1-1-.73,3.47,3.47,0,0,1-.72-1.07,3.17,3.17,0,0,1-.27-1.31,3.25,3.25,0,0,1,.27-1.32,3.73,3.73,0,0,1,.72-1.07,3.33,3.33,0,0,1,1-.72,3,3,0,0,1,1.27-.27,3.12,3.12,0,0,1,1.22.24,3.21,3.21,0,0,1,1,.7,3.32,3.32,0,0,1,.68,1.07,3.56,3.56,0,0,1,.25,1.37,1.62,1.62,0,0,1,0,.22l0,.21,0,.22H74.9a1.55,1.55,0,0,0,.49.81,1.49,1.49,0,0,0,1,.33,1.75,1.75,0,0,0,.55-.07,1.49,1.49,0,0,0,.38-.17,1.22,1.22,0,0,0,.29-.26Zm-3-3.09a1.57,1.57,0,0,0-1.06.37,1.74,1.74,0,0,0-.52.92H78a1.74,1.74,0,0,0-.52-.92A1.57,1.57,0,0,0,76.41,30.77Z"/><path class="cls-1" d="M83.31,29.26H85l1.66,4.31,1.51-4.31h1.72l-1.28,3.28-.48,1.24c-.16.4-.3.76-.42,1.1s-.24.6-.32.82l-.16.39a8.59,8.59,0,0,1-.48,1,3.36,3.36,0,0,1-.51.67,1.77,1.77,0,0,1-.59.37,2,2,0,0,1-.72.12h-.22l-.18,0a.58.58,0,0,1-.17,0V36.81a1.26,1.26,0,0,0,.84-.25,1.73,1.73,0,0,0,.45-.61l.14-.36Z"/><path class="cls-1" d="M97,32.57a3.16,3.16,0,0,1-.26,1.31A3.47,3.47,0,0,1,96.05,35a3.36,3.36,0,0,1-1,.73,3,3,0,0,1-1.27.27,3,3,0,0,1-1.27-.27,3.36,3.36,0,0,1-1-.73,3.47,3.47,0,0,1-.72-1.07,3.17,3.17,0,0,1-.27-1.31,3.25,3.25,0,0,1,.27-1.32,3.73,3.73,0,0,1,.72-1.07,3.33,3.33,0,0,1,1-.72,3,3,0,0,1,1.27-.27,3,3,0,0,1,1.27.27,3.33,3.33,0,0,1,1,.72,3.73,3.73,0,0,1,.72,1.07A3.24,3.24,0,0,1,97,32.57Zm-5,0a1.8,1.8,0,0,0,.47,1.31,1.69,1.69,0,0,0,2.36,0,2.06,2.06,0,0,0,0-2.62,1.67,1.67,0,0,0-2.36,0A1.79,1.79,0,0,0,92.08,32.57Z"/><path class="cls-1" d="M100.91,36a2.83,2.83,0,0,1-1.07-.2,2.22,2.22,0,0,1-.84-.56,2.48,2.48,0,0,1-.55-.88,3.34,3.34,0,0,1-.2-1.17V29.26h1.66v3.67a1.45,1.45,0,0,0,.38,1,1.3,1.3,0,0,0,1,.39,1.33,1.33,0,0,0,1-.39,1.45,1.45,0,0,0,.38-1V29.26h1.65v6.61h-1.22l-.29-.64a4.1,4.1,0,0,1-.53.36,3,3,0,0,1-.59.25A2.56,2.56,0,0,1,100.91,36Z"/><path class="cls-1" d="M14.72,15.75a7.69,7.69,0,0,1-6,2.69A8.59,8.59,0,0,1,2.43,16,8.82,8.82,0,0,1,0,9.55a11,11,0,0,1,1.13-5A7.38,7.38,0,0,1,4.28,1.13,8.87,8.87,0,0,1,8.71,0a8,8,0,0,1,3.61.82A7.64,7.64,0,0,1,14.7,2.59v.07l-.51.49a5,5,0,0,0-1-1.08A6.57,6.57,0,0,0,9.09.67,5.26,5.26,0,0,0,4.63,2.94,10.91,10.91,0,0,0,3,9.42a9.28,9.28,0,0,0,1.79,6.15,5.65,5.65,0,0,0,4.48,2.12A7,7,0,0,0,12.19,17a4.81,4.81,0,0,0,2-1.79Z"/><path class="cls-1" d="M27.14,11.68H20.36l-2.59,6.76h-1L24.43,0H25L32.8,18.44H29.91l-1.39-3.38Zm-.23-.62L23.68,3.33l-3.15,7.73Z"/><path class="cls-1" d="M40.3,0a15.68,15.68,0,0,1,4.38.51,5.29,5.29,0,0,1,2.51,1.62,4.23,4.23,0,0,1,1,2.84,5,5,0,0,1-.67,2.61,4.27,4.27,0,0,1-1.92,1.69,11.56,11.56,0,0,1-4.4.49h-2v4.07c0,.79,0,1.2,0,1.81v2.8H36.56V0Zm5,5.17a4.41,4.41,0,0,0-1.1-3.33A5.09,5.09,0,0,0,40.58.77c-.61,0-1.07,0-1.38,0V9.14h1.28A8.67,8.67,0,0,0,43,8.91a2.75,2.75,0,0,0,1.64-1.25A4.46,4.46,0,0,0,45.29,5.17Z"/><path class="cls-1" d="M54.92,0V18.44H52.26V0Z"/><path class="cls-1" d="M73.17,17.82v.62H60.35V0H63V17.82Z"/><path class="cls-1" d="M86.67,11.68H79.88L77.3,18.44h-1L84,0h.53l7.84,18.44H89.44l-1.39-3.38Zm-.23-.62L83.21,3.33l-3.15,7.73Z"/><path class="cls-1" d="M95.81,0h3.71c5,0,7.51,1.43,7.51,4.33a3.56,3.56,0,0,1-1.31,2.87,7.73,7.73,0,0,1-3.87,1.45,8,8,0,0,1,4.64,1.54,4.28,4.28,0,0,1,1.51,3.3,4.75,4.75,0,0,1-1,3,4.85,4.85,0,0,1-2.64,1.59,19.7,19.7,0,0,1-4.28.36H95.81Zm2.64,8.4h.69c2,0,3.25-.31,4-.92a3.68,3.68,0,0,0,1-3,4.76,4.76,0,0,0-.41-2.21,2.87,2.87,0,0,0-1.26-1.2A6.29,6.29,0,0,0,99.65.67c-.36,0-.89,0-1.2,0Zm0,9.27h2.33a4.4,4.4,0,0,0,3.23-.92,4.66,4.66,0,0,0,1.07-3.33,4.28,4.28,0,0,0-1.2-3.33C103.06,9.37,101.65,9,99.6,9L98.45,9Z"/></g></g></svg>