<?xml version="1.0" encoding="utf-8"?>
<!-- Generator: Adobe Illustrator 23.0.0, SVG Export Plug-In . SVG Version: 6.00 Build 0)  -->
<svg version="1.1" id="Capa_1" xmlns="http://www.w3.org/2000/svg" xmlns:xlink="http://www.w3.org/1999/xlink" x="0px" y="0px"
	 viewBox="0 0 42 32" style="enable-background:new 0 0 42 32;" xml:space="preserve">
<style type="text/css">
	.st0{fill:#C5946E;}
</style>
<g transform="scale(0.03125 0.03125)">
	<path class="st0" d="M1264,448H80c-4.9,0-9.6,2.3-12.6,6.1s-4.1,8.9-2.9,13.7l128.2,512.5c3.1,10.8,12.5,43.6,47.4,43.6h864
		c35,0,44.3-32.8,47.5-44.1l128-512c1.2-4.8,0.1-9.9-2.9-13.7C1273.6,450.3,1268.9,448,1264,448z M1120.6,971.6
		c-5.8,20.4-11.8,20.4-16.6,20.4H240c-4.8,0-10.8,0-16.5-19.9L100.5,480h1143C1243.5,480,1120.6,971.6,1120.6,971.6z M592,896
		c8.8,0,16-7.2,16-16V592c0-8.8-7.2-16-16-16s-16,7.2-16,16v288C576,888.8,583.2,896,592,896z M368,896c0.6,0,1.2,0,1.8-0.1
		c8.8-1,15.1-8.9,14.1-17.7l-32-288c-1-8.8-8.6-15-17.7-14.1c-8.8,1-15.1,8.9-14.1,17.7l32,288C353,890,359.9,896,368,896z M784,896
		c8.8,0,16-7.2,16-16V592c0-8.8-7.2-16-16-16s-16,7.2-16,16v288C768,888.8,775.2,896,784,896z M974.2,895.9c0.6,0.1,1.2,0.1,1.8,0.1
		c8,0,15-6,15.9-14.2l32-288c1-8.8-5.3-16.7-14.1-17.7c-9.2-0.9-16.7,5.3-17.7,14.1l-32,288C959.1,887,965.4,894.9,974.2,895.9z
		 M1104,384c3.7,0,7.4-1.3,10.5-3.9c6.7-5.8,7.4-15.9,1.6-22.6l-304-352c-5.8-6.7-15.9-7.4-22.6-1.7c-6.7,5.8-7.4,15.9-1.6,22.6
		l304,352C1095.1,382.1,1099.5,384,1104,384z M570.1,3.6c-6.8-5.5-16.9-4.6-22.5,2.3l-288,352c-5.6,6.8-4.6,16.9,2.2,22.5
		c3,2.4,6.6,3.6,10.1,3.6c4.6,0,9.2-2,12.4-5.9l288-352C578,19.3,577,9.2,570.1,3.6z M1328,320h-128c-8.8,0-16,7.2-16,16
		s7.2,16,16,16h128c8.8,0,16-7.2,16-16S1336.8,320,1328,320z M432,352h512c8.8,0,16-7.2,16-16s-7.2-16-16-16H432
		c-8.8,0-16,7.2-16,16S423.2,352,432,352z M16,352h160c8.8,0,16-7.2,16-16s-7.2-16-16-16H16c-8.8,0-16,7.2-16,16S7.2,352,16,352z"/>
</g>
</svg>
