<svg xmlns="http://www.w3.org/2000/svg" viewBox="0 0 8.85 16.37"><defs><style>.cls-1{fill:#c5946e;}</style></defs><title>facebook-capilab</title><g id="Capa_2" data-name="Capa 2"><g id="Capa_1-2" data-name="Capa 1"><path class="cls-1" d="M8.52,0H6.4A3.73,3.73,0,0,0,2.47,4V5.89H.33A.33.33,0,0,0,0,6.22V8.91a.34.34,0,0,0,.33.34H2.47V16a.33.33,0,0,0,.33.33H5.59A.33.33,0,0,0,5.92,16V9.25h2.5a.34.34,0,0,0,.33-.34V6.22A.33.33,0,0,0,8.65,6a.32.32,0,0,0-.23-.09H5.92V4.31c0-.75.18-1.14,1.17-1.14H8.52a.33.33,0,0,0,.33-.33V.34A.34.34,0,0,0,8.52,0Z"/></g></g></svg>