<svg xmlns="http://www.w3.org/2000/svg" viewBox="0 0 16.37 16.37"><defs><style>.cls-1{fill:#c5946e;}</style></defs><title>instagram-capilab</title><g id="Capa_2" data-name="Capa 2"><g id="Capa_1-2" data-name="Capa 1"><path class="cls-1" d="M12.24,0H4.13A4.13,4.13,0,0,0,0,4.13v8.11a4.13,4.13,0,0,0,4.13,4.13h8.11a4.13,4.13,0,0,0,4.13-4.13V4.13A4.13,4.13,0,0,0,12.24,0Zm2.35,12.24a2.35,2.35,0,0,1-2.35,2.35H4.13a2.35,2.35,0,0,1-2.35-2.35V4.13A2.36,2.36,0,0,1,4.13,1.78h8.11a2.35,2.35,0,0,1,2.35,2.35Z"/><circle class="cls-1" cx="12.54" cy="3.84" r="1"/><path class="cls-1" d="M8.19,4A4.22,4.22,0,1,0,12.4,8.18,4.22,4.22,0,0,0,8.19,4Zm0,6.65a2.44,2.44,0,1,1,2.43-2.44A2.44,2.44,0,0,1,8.19,10.62Z"/></g></g></svg>