<svg xmlns="http://www.w3.org/2000/svg" viewBox="0 0 29.26 29.26"><defs><style>.cls-1{fill:#c5946e;}</style></defs><title>logo-lyonn-footer</title><g id="Capa_2" data-name="Capa 2"><g id="Capa_1-2" data-name="Capa 1"><path class="cls-1" d="M14.63,0A14.63,14.63,0,1,0,29.26,14.63,14.63,14.63,0,0,0,14.63,0ZM10.56,17.64c.12-.29.07-.89-.43-.89A2.72,2.72,0,0,1,7.81,14a1.21,1.21,0,0,1,.06-.38A.91.91,0,0,1,9.32,13a2.34,2.34,0,0,0,2.24.37c.55-.22.65,1.74.72,2.78.08,1.34,1.93.87,1.93,2.29a1.7,1.7,0,0,1-1.91,1.79A2,2,0,0,1,10.56,17.64Zm6.67,4.06a1,1,0,0,1-1,1H13.16a1,1,0,0,1-1-1h0a.65.65,0,0,1,.51-.63l2-.65,2,.65a.65.65,0,0,1,.5.63Zm2-4.95c-.51,0-.56.6-.44.89a2,2,0,0,1-1.74,2.61,1.7,1.7,0,0,1-1.91-1.79c0-1.42,1.86-.95,1.94-2.29.06-1,.17-3,.71-2.78A2.34,2.34,0,0,0,20.07,13a.91.91,0,0,1,1.45.58,1.21,1.21,0,0,1,.06.38A2.73,2.73,0,0,1,19.27,16.75Zm1.16-4.82c-3.53,0-4,.38-4.07,3.93a.48.48,0,0,1-.49.48H13.52a.49.49,0,0,1-.49-.48c0-3.55-.53-3.93-4.07-3.93-2.28,0-1.88-3.24.93-3.76a2.25,2.25,0,0,1,1.28.15l2.58,1.1a2.48,2.48,0,0,0,1.89,0l2.59-1.11a2.05,2.05,0,0,1,1.12-.16C22.3,8.57,22.75,11.93,20.43,11.93Z"/></g></g></svg>