<svg xmlns="http://www.w3.org/2000/svg" viewBox="0 0 142.94 49.16"><defs><style>.cls-1,.cls-2{fill:#fff;}.cls-2{font-size:15.34px;font-family:PlayfairDisplay-BoldItalic, Playfair Display;font-weight:700;font-style:italic;}</style></defs><title>mercado-libre</title><g id="Capa_2" data-name="Capa 2"><g id="Capa_1-2" data-name="Capa 1"><path class="cls-1" d="M72,36.41A43.1,43.1,0,0,0,64.07,39c-.85-.75-5.81-5.08-7-6a4.59,4.59,0,0,0-1.41-.82,2.39,2.39,0,0,0-1.55,0,7.28,7.28,0,0,0-2.13,1.35,5.68,5.68,0,0,1-1.87,1.18A2.22,2.22,0,0,1,48,34.33c-.12-.15.06-.33.07-.35l1.58-1.7a6.58,6.58,0,0,1,5.12-2.47,9.56,9.56,0,0,1,3.69.83c3.42,1.67,6.91,1.05,9.77-.15-3.31-2.68-8.42-4.41-14.17-4.41a23.2,23.2,0,0,0-13.68,4A26.53,26.53,0,0,0,45,31.77c.24.06,1.5.27,1.73.27a6.52,6.52,0,0,0,1.7-.32,10.27,10.27,0,0,1,1.45-.33l-.56.56-1.6,1.72a.69.69,0,0,0-.19.75,1,1,0,0,0,.38.42,3.33,3.33,0,0,0,2.27.34,5.87,5.87,0,0,0,2.06-1.28,6.84,6.84,0,0,1,2.11-1.25,2.22,2.22,0,0,1,.77-.08,3.23,3.23,0,0,1,1.62.77c1.31,1,7.08,6,7.14,6.09a1.21,1.21,0,0,1,.39.94,1.06,1.06,0,0,1-.52.83,1.4,1.4,0,0,1-1.56,0s-2-1.83-2.72-2.44c-.11-.09-.27-.22-.34-.13s.16.32.16.32l2.31,2.32a1.17,1.17,0,0,1,.35.7,1.14,1.14,0,0,1-.6,1.06,1.39,1.39,0,0,1-1.62.06c-.72-.71-1.48-1.47-2-1.92-.11-.09-.26-.21-.34-.13s.16.32.16.32l1.69,1.89a.78.78,0,0,1,0,1l0,0a1.24,1.24,0,0,1-.25.26,1.5,1.5,0,0,1-1.14.27c-.34-.06-.4-.18-.41-.19s-.9-.93-1.64-1.54c-.1-.09-.25-.22-.33-.13s.16.31.16.31l1.45,1.61c.05.06,0,.14-.06.22a1.14,1.14,0,0,1-.82.36,3.31,3.31,0,0,1-1.77-.48,1.93,1.93,0,0,0,.24-1,2,2,0,0,0-2-2h-.2a1.82,1.82,0,0,0-1-2,2,2,0,0,0-.85-.19,1.66,1.66,0,0,0-.71.15,1.71,1.71,0,0,0-1-.93,2.08,2.08,0,0,0-.73-.13,1.94,1.94,0,0,0-1.22.43,1.71,1.71,0,0,0-1.39-.73,1.68,1.68,0,0,0-1.27.57c-.29-.24-1.89-1.42-7-2.56l-1.07-.29a7.23,7.23,0,0,0-.14,1.4c0,6.37,8.07,11.53,18,11.53s18-5.16,18-11.53A8,8,0,0,0,72,36.41ZM52.68,45.53A1.57,1.57,0,0,1,51.1,44c0-.15,0-.17-.15-.07a1.11,1.11,0,0,1-1.31.25,1.19,1.19,0,0,1-.89-1.27c0-.1,0-.13-.1-.06a1.2,1.2,0,0,1-1.21.19,1.66,1.66,0,0,1-1-1.9,0,0,0,0,0,0,0,1.29,1.29,0,0,1-.87.35,1.26,1.26,0,1,1,1.24-1.42,1.75,1.75,0,0,1,2-.7,1.27,1.27,0,0,1,.89,1.18c0,.06,0,.07.07,0a1.36,1.36,0,0,1,1.6-.24c1.15.49.68,1.91.65,2s-.09.23-.06.25a5.33,5.33,0,0,1,.8-.18,1.58,1.58,0,0,1,0,3.16Z"/><path class="cls-1" d="M80.36,30.86v5.52h-2.2V31.3q0-3.69,3.71-3.69a4,4,0,0,1,2.57.74,4.1,4.1,0,0,1,2.58-.7c2.47,0,3.69,1.22,3.67,3.68v5.08H89.57c-.72,0-1.08-.39-1.08-1.08V30.89c0-.89-.54-1.33-1.5-1.33s-1.45.44-1.47,1.33v5.49H83.33V30.86c0-.9-.53-1.34-1.5-1.34s-1.45.44-1.47,1.34"/><path class="cls-1" d="M101.34,32c.06-2.8,1.44-4.35,4.33-4.35h.65v2.26l-1,0c-1.21,0-1.78.78-1.78,2v4.49h-2.2Z"/><path class="cls-1" d="M118.48,30.32h-2c.07-1.67.91-2.78,3.38-2.78s3.59.78,3.64,2.38v2.94c0,2.38-1.44,3.44-3.77,3.61-2.08.16-3.51-.8-3.51-2.71,0-2.08,1.55-2.63,3.73-2.84.93-.12,1.41-.39,1.41-.87s-.51-.72-1.41-.73a1.32,1.32,0,0,0-1.45,1m2.89,2.44v-.71a8.93,8.93,0,0,1-1.73.43c-.86.17-1.3.58-1.3,1.21a1,1,0,0,0,1.09,1,1.78,1.78,0,0,0,1.94-1.94"/><path class="cls-1" d="M132.79,24.86v7.78c0,2.59-1.36,3.88-4,3.87s-4-1.5-4-4.38,1.15-4.43,3.45-4.52A2.71,2.71,0,0,1,130.63,29V26a2.87,2.87,0,0,1,2.15-1.1M127,32c0,1.74.57,2.62,1.81,2.62s1.86-.88,1.86-2.62-.65-2.48-1.83-2.48S127,30.37,127,32"/><path class="cls-1" d="M94.13,37.72h.57V49.16H92.53v-10a1.9,1.9,0,0,1,1.6-1.4"/><path class="cls-1" d="M106,40.26a2.7,2.7,0,0,0-2.45,1.34V37.72h-.24a2.15,2.15,0,0,0-1.93,1.07v6.5c0,2.59,1.36,3.88,4,3.87s4-1.5,4-4.38-1.14-4.43-3.44-4.52m-.64,7.05c-1.24,0-1.82-.88-1.81-2.62s.67-2.48,1.85-2.48,1.77.81,1.82,2.48-.62,2.62-1.86,2.62"/><path class="cls-1" d="M94.56,34.21a2.11,2.11,0,0,0,1.5.5,2,2,0,0,0,1.21-.35,1.42,1.42,0,0,0,.61-.74h2a3.93,3.93,0,0,1-1.5,2.17,4.44,4.44,0,0,1-2.44.65,4.84,4.84,0,0,1-1.79-.32,3.72,3.72,0,0,1-1.35-.9,4,4,0,0,1-.85-1.4A4.91,4.91,0,0,1,91.68,32,5,5,0,0,1,92,30.27a4.26,4.26,0,0,1,.88-1.41,4.21,4.21,0,0,1,1.36-.93A4.34,4.34,0,0,1,96,27.59a3.94,3.94,0,0,1,1.87.41,3.75,3.75,0,0,1,1.31,1.12,4.47,4.47,0,0,1,.74,1.59,5.81,5.81,0,0,1,.16,1.87H94a2.42,2.42,0,0,0,.57,1.63m2.62-4.43a1.65,1.65,0,0,0-1.27-.45,2,2,0,0,0-.91.18,1.75,1.75,0,0,0-.59.47,1.64,1.64,0,0,0-.31.58,3.44,3.44,0,0,0-.11.56h3.76a2.77,2.77,0,0,0-.57-1.34"/><path class="cls-1" d="M111.21,29.3a1.65,1.65,0,0,0-.94.25,2,2,0,0,0-.61.66,3,3,0,0,0-.34.89,4.47,4.47,0,0,0-.1,1,4.36,4.36,0,0,0,.1.94,2.94,2.94,0,0,0,.32.86,1.81,1.81,0,0,0,.6.63,1.6,1.6,0,0,0,.92.25,1.71,1.71,0,0,0,1.29-.47A2.24,2.24,0,0,0,113,33h2.25A3.8,3.8,0,0,1,114,35.59a4.17,4.17,0,0,1-2.77.89,4.7,4.7,0,0,1-1.75-.32,3.78,3.78,0,0,1-1.36-.89,4.26,4.26,0,0,1-.87-1.38,4.7,4.7,0,0,1-.31-1.75,5.49,5.49,0,0,1,.29-1.83,4.14,4.14,0,0,1,.84-1.46,3.85,3.85,0,0,1,1.37-1,4.61,4.61,0,0,1,1.84-.35,5.4,5.4,0,0,1,1.45.2,3.81,3.81,0,0,1,1.25.6,3.19,3.19,0,0,1,.9,1,3.14,3.14,0,0,1,.39,1.42h-2.28a1.57,1.57,0,0,0-1.73-1.46"/><path class="cls-1" d="M134.46,30.18a3.84,3.84,0,0,1,.88-1.41,4.2,4.2,0,0,1,1.38-.91,4.94,4.94,0,0,1,1.81-.32,5,5,0,0,1,1.82.32,4.14,4.14,0,0,1,1.39.91,3.84,3.84,0,0,1,.88,1.41,5.17,5.17,0,0,1,.32,1.85,5.11,5.11,0,0,1-.32,1.84,3.88,3.88,0,0,1-.88,1.4,4,4,0,0,1-1.39.9,5,5,0,0,1-1.82.31,5,5,0,0,1-1.81-.31,4,4,0,0,1-1.38-.9,3.88,3.88,0,0,1-.88-1.4,5.11,5.11,0,0,1-.32-1.84,5.17,5.17,0,0,1,.32-1.85M136.58,33a2.39,2.39,0,0,0,.33.87,1.73,1.73,0,0,0,.64.62,2,2,0,0,0,1,.23,2,2,0,0,0,1-.23,1.81,1.81,0,0,0,.64-.62,2.39,2.39,0,0,0,.33-.87,4.62,4.62,0,0,0,.1-1,4.71,4.71,0,0,0-.1-1,2.51,2.51,0,0,0-.33-.88,2,2,0,0,0-.64-.61,1.92,1.92,0,0,0-1-.24,1.85,1.85,0,0,0-1,.24,1.87,1.87,0,0,0-.64.61,2.51,2.51,0,0,0-.33.88,4.71,4.71,0,0,0-.1,1,4.62,4.62,0,0,0,.1,1"/><path class="cls-1" d="M110.68,44.68c.06-2.79,1.44-4.34,4.33-4.34h.66v2.25l-1,0c-1.21,0-1.78.78-1.78,2v4.48h-2.2Z"/><path class="cls-1" d="M119.1,46.93a2.36,2.36,0,0,0,2.7.16,1.48,1.48,0,0,0,.62-.74h2A3.85,3.85,0,0,1,123,48.51a4.46,4.46,0,0,1-2.44.65,4.84,4.84,0,0,1-1.79-.32,3.72,3.72,0,0,1-1.35-.9,4.07,4.07,0,0,1-.86-1.4,5.13,5.13,0,0,1-.3-1.79,4.86,4.86,0,0,1,.31-1.76,4.11,4.11,0,0,1,2.24-2.34,4.3,4.3,0,0,1,1.75-.34,4.09,4.09,0,0,1,1.87.41,3.75,3.75,0,0,1,1.31,1.12,4.64,4.64,0,0,1,.74,1.59,6.1,6.1,0,0,1,.16,1.87h-6.07a2.3,2.3,0,0,0,.57,1.63m2.61-4.42a1.58,1.58,0,0,0-1.26-.46,2,2,0,0,0-.92.19,1.7,1.7,0,0,0-.89,1,2.54,2.54,0,0,0-.11.55h3.76a2.61,2.61,0,0,0-.58-1.33"/><rect class="cls-1" x="97.03" y="37.72" width="2.17" height="1.98"/><rect class="cls-1" x="97.03" y="40.7" width="2.17" height="8.46"/><text class="cls-2" transform="translate(0.58 13.1)">Disponible en</text></g></g></svg>