<svg xmlns="http://www.w3.org/2000/svg" viewBox="0 0 1672.5 753.47"><defs><style>.cls-1{opacity:0.05;}.cls-2{fill-rule:evenodd;}</style></defs><title>patron</title><g id="Capa_2" data-name="Capa 2"><g id="Capa_1-2" data-name="Capa 1"><g class="cls-1"><path class="cls-2" d="M1133.15,753.47h-29.69L998,725.13c-32-2.72-63.93-5.92-96.17-8.06-81.4-5.4-162.57-11-245.66-6.22-55.26,3.17-109.93-1.23-163.4-8.33q-74.53-9.9-149.54-19.07c-47.48-5.81-92.11-3.17-139.75,4C137.65,697.29,68,702,0,708.89v-2.23c8-.86,16-1.65,24-2.6,71.38-8.52,142.53-17.46,214.24-25.37,20.3-2.24,43.14-3.48,63.25-1.66,52.31,4.72,104.26,10.61,155.41,17.47,74,9.93,147.94,15.62,226.16,12.89,53.52-1.88,108.06,1.53,162,3.23,33.85,1.07,67.51,3.36,101.25,5.1-44.87-5.13-89.59-10.31-135-13-42.79-2.52-86.82-4.71-129.46-2.92-67.62,2.84-132.82,1.4-197.23-8.57-44.32-6.86-89-13.34-134.11-19-40.17-5.07-81.15-7-120.8,1.48C157,689.18,77.13,690.83,0,697.74v-2.23c8-.85,16-1.76,24.05-2.53C99.5,685.74,177,682.57,248.44,667.43c17.85-3.78,43-3.74,63-1.71,52.84,5.38,105.4,11.82,156.69,19.66,68.29,10.44,136.78,15.79,208.84,10.56a752.14,752.14,0,0,1,151.66,4.68c22.51,2.93,46,4.35,69,6.45-39.85-6.6-79.83-12.15-119.63-18-31.92-4.66-64.32-7.45-97.08-2.87-73.16,10.21-142.82,4.93-212.21-7.48-38.91-7-79.1-12.66-119.49-17.67-33.77-4.18-69.17-5.16-101.67,2.16C169.37,680.84,83,680,0,686.59v-2.23l211.87-16.07-1.09-2.12L0,675.45v-2.23l207-10.9-.66-2.46L0,664.3v-2.23c53.27-1.45,106.56-2.69,159.77-4.44,26.59-.88,53-2.67,79.54-4-.22-.14-.42-.28-.63-.43H0v-2.22c84.51-3.9,170.34,3.1,257.33-5.14L0,642v-2.23c71.62.72,143.28,2.43,214.83,1.7,32.66-.34,65.07-5.5,97.6-8.47l33.64-3.11c13.72-1.18,27.37-2.57,41.17-3.52,46.51-3.23,85.38,6,123.12,16.13,49.34,13.25,97.43,14.08,146.16-.59,33.06-10,66-10.77,97.16,2.1.94.39,4.85-.69,7.38-1.08l55,18.43c19.59,4,38.59,10.45,58.88,11.41,72,3.4,144.5,5,216.83,7.11,117.74,3.39,233-7.25,349-13.08,32.36-1.63,58.68-9.06,73.55-23l16.8-10.61c2.22-.44,4.9-.67,6.59-1.37,51.78-21.64,65.88-22.41,125.84-6.87,2.68.69,5.91,1,8.89,1.42v4.46c-10.7-2.72-21.22-5.59-32.12-8.13-32.4-7.57-57.45-6.46-83.18,4.94-14.76,6.54-26.57,14.43-41.41,22.65,5.86,0,7.93.27,8.51,0,41.91-22,90.62-27.81,148.2-12.73V642q-13.27-2.82-26.57-5.65c-26.15-5.51-52.67-7.07-76.83,1.37-22,7.69-42.21,16.41-63.2,24.68a65.5,65.5,0,0,0,21.93-4.83c41.4-16.85,86.44-22,137.52-9.11,1.89.48,4.74.17,7.15.23v4.45c-70.77-19-122.26-2.74-170.54,19.77,53.07-16.66,107.5-28.62,170.54-10.85v2.23c-85.21-20.69-143.72,6.86-207.69,24,23.07-4.33,45.58-9.21,67.94-14.24,46.31-10.4,92.84-11.48,139.75-.86v2.23c-60.11-12-114.1-4.38-169.15,8.48-32.14,7.5-69.13,10.87-104.2,15.7-11.74,1.62-24.29,2-36.48,3,60.93,1,115.57-9.17,170.58-18.77,46.5-8.12,93-8.48,139.25.52v2.23c-37.55-4.19-75.18-8.14-113.8-2.71q-93,13.1-186,26.33c46-3.63,92.18-7.93,137.55-13.59,54.17-6.75,107.82-9.81,162.21-1.11v2.23c-53.77-6.08-106.46-4.93-160.09,1.92-46.35,5.91-94.5,8.93-141.64,13.67-11.3,1.13-21.73,4-32.57,6.07l-51.09,11.7c-9.3,2.2-18.85,4.21-27.86,6.62-40.78,10.92-83.71,14.56-129.36,7.46-21.27-3.31-42-7.36-62.93-11.07-.51.44-1,.88-1.54,1.31Zm348.92-86.71a4146.36,4146.36,0,0,1-640.62,8C1057,697.3,1270.92,696.65,1482.07,666.76ZM270.8,654.36c26.39.95,49.41.18,70.28,2.85,54.49,7,108.24,15.15,161.91,23.36,52.69,8.06,105.56,11.41,159.9,3.83,44.49-6.21,87.68-4.1,130.35,3.63,16.78,3,34.24,5.3,51.39,7.92-24.26-6.81-49.78-11.87-75-17.22-32.93-7-66.94-8.4-100.8-2.59-61.67,10.58-120.93,7.17-180.1-4-34.12-6.42-68.53-12.74-103.82-17.63C348.86,649.53,311.6,648.06,270.8,654.36Zm604.28,28.31c204.64,28.87,405.7,22.93,604-9.95A2784.14,2784.14,0,0,1,875.08,682.67ZM342.93,644.61c48.71,8,100.08,15.65,150.16,24.76,58.05,10.55,115.67,14,175.42,3.39,36-6.38,71.17-4.08,105.4,3.13L818,685.17c-4.3-3-10.58-4.46-16.11-6.35-52.29-17.74-106.34-22.67-168.16-8.73-32.6,7.35-69.74,5.15-103.84-.65-30.75-5.23-60.61-11.56-90.81-17.46C406.89,645.69,373.8,642.22,342.93,644.61Zm20.35-11.75c54-3.21,98.08,8.32,142.3,19C551.3,663,597.49,665,645.87,656.16c41.35-7.58,82.82-13.49,123.82,1.55-39.3-22.79-62.83-24.89-115.48-11.42-2.15.55-4.27,1.12-6.4,1.68-39.36,10.29-79.66,11.06-120.52,2.1-22.21-4.87-43.66-10.45-66-15.22A261,261,0,0,0,363.28,632.86Zm423.58,37.88c-43.24-18.82-68.12-23.85-106.08-16.14-75.49,15.34-145.27,12.34-213.3-7.75-6.13-1.81-13.26-3-20.06-4.28-38.76-7.53-78.08-7.74-118.17-1.21,56.31-4.74,105.16,4.87,152.82,15.92,60.34,14,120.8,18.35,184.6,4.37,32.83-7.19,65.82-4.76,97.06,3.24C771.41,666.86,779.15,668.79,786.86,670.74Zm171.56,24.77-1.9,1.44c40.86,4,81.79,7.85,122.56,12a841.52,841.52,0,0,0,223.24-6.86c38.3-6.25,79.42-9,119.24-13.35,12.73-1.4,25.36-3,38-4.52-50.85,2.59-101.14,6.17-149.93,12.19-68.39,8.44-136.9,12.76-207.47,8.34Q1030.28,700.26,958.42,695.51Zm56.76,11c106.8,24.43,219.77,22.8,312.92-5.09C1225.26,723.66,1120.53,719.35,1015.18,706.48Zm297.28,4.19c-89.52,22.87-181.29,20.41-274.21,5C1131.93,739.6,1223.72,742.33,1312.46,710.67ZM1284.88,724c-77.2,21.61-154.67,15.73-232.23.52C1145.54,751.75,1220.84,751.6,1284.88,724Z"/><path class="cls-2" d="M0,249.67v-4.46c15.65-5.06,33.82-9.1,46.48-15.38,40.13-19.93,58.63-21.86,105.7-4.68,32.35,11.81,67,14.36,106.18,12.5,95.75-4.55,191.53-9.08,287.44-12.88,59.38-2.36,117.21-6.43,172.46-17.37a366,366,0,0,1,168,5.67c30.15,8.23,57.76,18.35,86.64,27.54,26.19,8.33,51.53,17.32,79,24.67,49.76,13.28,103.35,15.22,156.65,5.28,36.32-6.78,72-14.82,105.38-24.15,81-22.62,163.63-24.25,249.7-7,31.51,6.32,63.55,12.09,95.35,18.12l13.52,1.08v4.46c-8.49-1.24-17.19-2.24-25.43-3.76-37.3-6.88-74.17-14.26-111.75-20.81-67.72-11.8-133.78-10.24-197.43,6.17-23.58,6.07-47.75,11.71-71.12,17.94-93.89,25-182.91,22.35-268.07-8.63-31.4-11.42-63.46-22.55-96.65-32.87-61.75-19.21-126.66-21.8-196.83-8.34-33.57,6.43-70.53,10.63-106.83,12.59-109.58,5.94-219.62,10.14-329.41,15.3-47.56,2.23-92.11.71-128.76-15.5-6.77-3-16.61-4.81-25.66-6.5-17-3.17-31.88-1.62-47,6.45,38.67-6.47,62.87,2.9,83.15,12.76,31.85,15.47,69.16,18.28,112.52,15.15C360,246,457,239.73,553.71,232.66c50.15-3.66,103.49-4.65,149-13.5,71.53-13.9,134.21-11.23,196.15,7.66,39.55,12.06,78.14,24.78,116.85,37.4,77.44,25.23,157.61,27.16,241.19,6.47,30.3-7.5,61.09-14.63,92.13-21.49,48.16-10.64,99.59-15.08,151.29-8.42,58.28,7.5,114.85,17.7,172.16,26.73v2.23c-42.4-6.94-84.68-14-127.22-20.79q-112.23-17.85-216.6,8.14c-32.34,8.07-65.18,15.86-98.87,22.69-62.57,12.66-124.59,11.55-184.85-3.69-5.77-1.45-11.89-2.61-17.85-3.92,56.71,20.36,119.36,28.38,188.6,15.64,38.73-7.13,76.41-15.52,113.68-24.13a588.34,588.34,0,0,1,212.89-9.87c44,6,86.85,13.54,130.22,20.38v2.23c-31.8-4.95-63.7-9.77-95.37-14.87-91.29-14.71-179.06-12.74-264.06,9.62-28.32,7.45-58.83,13.38-89.26,19-59.4,10.95-117.74,9.35-173.12-5.63-23.27-6.29-45.53-13.36-68-20.24-36.08-11.05-70.87-23.05-108.17-33.18C826,217.94,776.34,217,724.17,229.31c-25.59,6.06-55.72,8.73-84.5,11.4-30.58,2.84-62.26,3.19-93,5.81-92.24,7.84-184.23,16.26-276.32,24.45-50.43,4.48-94.78,1.56-127.27-19.12-8.72-5.55-22.07-10.13-35.3-13.61-20.47-5.4-39.09-1.92-50.58,8.09,32.68-7,51.07-5.49,76.31,6.62,6.75,3.24,13.67,6.57,18.71,10.35,24.82,18.63,62.13,22.93,106.58,19.41q17-1.35,33.93-3C388.34,270,483.43,259.19,579.63,251c62.25-5.29,124.94-7.55,182.13-22.26,16.19-4.17,45.22-3.21,63.59.37,37.44,7.29,72.24,17.52,107,27.34s67.45,21.36,102.64,31c66.68,18.18,136.58,20.27,208,5.57,35.2-7.25,69.93-14.95,105-22.29,54.62-11.43,112.11-16.17,171-10,51.86,5.42,102.41,13.37,153.54,20.2v4.46c-30.13-5-60-10.3-90.43-14.87-87.73-13.18-173.14-11.73-255.93,8.29-28.24,6.83-57.64,12.75-87.09,18.47-67.16,13-133.68,11.82-197.19-4.44-34.28-8.77-66-19.56-99.36-29.08-36.1-10.29-72.1-20.73-109.47-30-29.54-7.34-58.77-5-89.54,1.62s-64.28,11-97.6,14.4c-44.09,4.47-89.49,6.27-133.74,10.48-86.95,8.27-173.38,17.62-260.25,26.09-42,4.09-75.79-2.08-101-18.21A192.74,192.74,0,0,0,114.58,250c-22.11-8.23-42-6.25-59.3,4.57,35-6.69,53.07-4.82,78.75,8.86,10.61,5.65,19.86,11.84,29.25,17.93,16.89,10.94,39.44,17,69.37,15.32,26.06-1.43,52.14-3.28,77.75-5.86,108.33-10.93,216.14-23,324.9-33,42.39-3.88,83.72-7.09,120.18-18.44,21.25-6.61,45.45-6.95,68.18-1.46,29.7,7.16,58.84,14.84,87.5,22.83,43.41,12.08,85.07,25.52,129.52,36.76,67.28,17,137.68,18.79,208.88,4.29,30-6.1,60.08-12.16,89.7-18.63q118.08-25.79,242.54-7.43c30.4,4.46,60.48,9.35,90.7,14.05v4.46c-27-4.56-53.71-9.37-80.89-13.63-85.75-13.44-169.78-12.25-251.87,6.19-27.26,6.12-55.23,11.59-82.93,17.32-75,15.51-149.1,14.07-220.77-3.81-36.68-9.15-71.17-20.08-106.85-30.06C894.92,260.69,861,250.86,825.81,242c-24-6.09-49.51-5.59-72.49,1.79-35.59,11.42-76.19,15.28-118.51,17.16-18,.81-36.2,1.66-53.75,3.55-98.47,10.63-196.7,21.71-295.17,32.35-48,5.19-95.79,8.47-131.07-13.64,20,20.84,43.84,27.93,90.17,24.93,37.34-2.42,74.12-6.79,110.94-10.67,90.51-9.53,180.4-20.5,271.59-28.45,46.6-4.06,91.88-7.11,131.33-20.27,21.06-7,45.95-5.76,68.23-.41,26.86,6.45,52.59,13.85,78.84,20.82,50.34,13.36,99.32,27.93,151.39,39.74,63.48,14.4,130.22,14.72,196.33,2.28,31.15-5.86,62.21-11.84,92.85-18.22,86.34-18,173.57-18.25,261.8-3.25,21.48,3.65,42.81,7.51,64.21,11.27v4.46c-13.5-2.7-27-5.46-40.53-8.11-99.73-19.45-198.8-20.51-297.66,1.59-27.17,6.08-55.52,11.1-83.65,16.26-63.51,11.65-126.74,10.49-189.3-1.59-21-4.06-41.68-8.45-62.5-12.69l-46-13.21C912,276,871.47,264,830.19,252.64c-27.44-7.57-52.84-5.14-80.88,1.92s-59.64,12-91,15.32c-68.65,7.33-138.39,12.55-207.19,19.6-64.07,6.57-127.27,14.85-191.31,21.5-36.22,3.77-70.48,1.3-96.61-12.41l-14.48-7.66c-12.39-7.6-22.5-16.34-37.72-22.52-22.18-9-52.85-4.89-64.11,7.7-4.5,5-5.16,10.75-7.57,16.16l.6-.46C30.41,298.59,21.09,305.5,0,305.4v-49c26.41,1.13,33.92-6.73,40-16.2Zm889.62-21c-56.76-18-111.67-19.81-173.69-7.84a739.18,739.18,0,0,1-82.31,11.1c-46.21,3.59-93.24,5-139.7,8-85.58,5.52-170.93,11.72-256.51,17.24-31.14,2-58.12-2.36-81-12.59A300.49,300.49,0,0,0,114,229.35c-23.59-6.51-43.64-3.18-56.79,8.32,34.37-7.65,51-6.54,78.7,5.65,8.83,3.88,17.17,8,25.07,12.3,19.5,10.57,44.51,15.06,74.48,13.76,17.18-.75,34.35-1.88,51.33-3.3,104.42-8.71,208.51-18.31,313.28-26,49.9-3.67,98.26-7.57,144.34-17.84,19.26-4.3,45.09-5,67-3.86C837.5,219.74,862.61,224.89,889.62,228.62ZM142.53,275.4c-15-10.25-28.37-22.43-61.26-20.91-11.77.55-22.4,6-33.56,9.28l3.83,2.68C86.94,256.21,99.17,257.55,142.53,275.4Z"/><path class="cls-2" d="M952.91,287.65l46,13.21c28,6.7,55.13,14.31,84.18,19.9a517.27,517.27,0,0,0,187.67,1.18c32.2-5.64,64.51-11.17,96.28-17.28,81.37-15.61,163-15.55,245.46-1.91,19.87,3.29,40,6.24,60,9.34v4.46c-14.53-2.52-29.17-4.92-43.58-7.58-90.63-16.7-180.86-17.59-271,.88-23.22,4.76-47.21,8.73-70.79,13.14-78.57,14.68-156,13.32-231.77-3.83-33.08-7.48-65.1-15.92-97.39-24.1-34.45-8.73-68.17-18.06-103.09-26.39-35.7-8.52-71.7-8.08-109.32-.65-26,5.14-54.44,8.33-82.47,10.82-37.91,3.36-77.3,3.76-114.6,8-82.11,9.37-163.18,20.57-244.93,30.58-36.39,4.46-73.3,9-114.85.71,22,9.46,40.6,12.65,65.47,10.68,21-1.66,42-3.94,62.21-6.94,120.34-17.78,238.77-38.69,368.76-38.14,45,.19,91.27-6.21,134.75-3.16,48.54,3.39,95.44,13.15,141.42,21.9,43.9,8.35,85.19,19.45,128.52,28.45a586,586,0,0,0,227.77,2.31c29.68-5.5,59.78-10.56,89.58-15.94,69.71-12.6,139.65-12.71,209.91-1l55.42,9.2v4.45c-13.66-2.58-27.28-5.22-41-7.75-76.82-14.17-153.66-15-230.73-.26-25,4.78-50.66,8.87-75.67,13.65a608.05,608.05,0,0,1-241.87-2.19c-50.68-10.7-100-22.72-150.28-33.81-56.36-12.43-114.79-20.11-178.88-16.49-51.47,2.91-103.31,4.4-154.86,7-29.46,1.5-58.67,4-88,6,54.09.72,107.45.56,160.81.78,28.84.12,57.66,1.15,86.51,1.34,65.85.44,129.28,6.13,190.11,17.49,54.76,10.23,108.79,21.31,164.2,30.76,56.75,9.68,115.9,16.26,176.6,9.63,41.4-4.53,82.85-10.36,121.47-18.36,88.38-18.29,174.77-18.92,261.57,1.07v4.46c-73.55-17.73-149-22.32-228-7.45-31.12,5.86-62.92,11-94.41,16.41a632.87,632.87,0,0,1-203.27,2.51c-48.26-7.32-97.12-14.73-142.25-25.14-145.32-33.53-301.8-31.48-457-28.65C493.85,302,441,314.7,388.11,322.56c-51.81,7.7-100.06,21.26-164.43,18,28.16,7.27,51.56,7.23,74.11,3.11,44.95-8.21,89.42-17,133.65-26a580.63,580.63,0,0,1,141.8-11.48c173.07,7.7,345,17,508.38,47.23,53.23,9.84,112.23,14.74,169.68,18.19,76.78,4.62,148.76-8.46,217-21.78,71.23-13.91,136.92-12.62,204.18,2.35v2.22c-8.46-1.15-17.18-2-25.33-3.51-54.3-10-107.57-11.15-162.68.08-35,7.15-73,11.43-109.62,17a701.22,701.22,0,0,1-194.66,2.5c-70.28-9.1-139.51-19.92-208.68-30.66-99-15.39-203-18-305.07-26-107.56-8.41-207.13-3.28-302.69,21.43-32,8.28-69.93,11.88-102.92,17.26,16.92,4.45,38.94,2.82,59.35-1.11,33.25-6.4,65.66-13.72,98-21,42.42-9.59,86.09-14.2,133.74-9.81,24.95,2.3,50.43,3.67,75.82,4.71,152.09,6.2,301.51,17.72,447.49,39,63.68,9.27,130.82,15,197.39,18.61,76.95,4.2,150.44-8,221-19.68,62.55-10.39,120-10.18,178.81,2.46v4.46c-52.84-12.55-105.86-15.57-163.68-5.26-137,24.43-275,28.46-417.32,6.22-84.39-13.19-172.25-22.94-260.18-30.18-101.9-8.4-205.56-12.54-308.57-18-16-.86-34.27-.86-48.74,1.8-60.09,11-119.11,23.23-178.53,35l1.2,2.68c20.48-1.54,41.77-2,61.22-4.91,21.67-3.26,42-8.5,62.33-13.35,42.22-10.06,86.83-14.45,133.82-10.28q207.08,18.4,413.77,37.68c68.47,6.4,136.28,14.26,204.78,20.57,99.15,9.15,194.71,1.68,288.48-13.84,67.88-11.23,136.33-13.86,204.18.67,2,.43,4.81.11,7.24.15v4.45c-39.26-6.47-79.13-14.88-121.36-10.65-59.39,6-117.49,14.5-176.14,21.93l1.2-.26a1250.47,1250.47,0,0,1-230.41-1.15c-173.74-16.88-347.27-34.2-521-51-67.23-6.5-136.2-13-199.47,4.74-65.46,18.36-130,22.35-200.77,6.77-35.41-7.81-72.37-5-106.92,3.42-15.22,3.69-29.78,8.64-46.07,10.54-23.15,2.71-47.61,3.12-71.52,4.52v-2.23c26.2-2.37,54.49-2.67,78.12-7.56C121.94,353.42,162.66,341,215,347.78c-44.77-15.74-90.11-15.59-132.75.51C58,357.44,33.83,365.14,0,361.13V358.9c30,1.65,54.13-3.28,75.8-12.51,22.23-9.45,48.57-15.4,80.47-13.57,12.5.71,24.77,2.27,39.77,3.68-47.6-18.8-89.26-18.68-129.51.47C47.86,345.85,28.61,352.28,0,350v-2.23c24.58.31,43.74-4,59.92-12.5,28.22-14.87,62.51-21.15,105.05-12.38,1.45.29,3.72-.22,6.31-.4-44.64-20.26-81-19.48-116.34,2.78-14,8.81-30,14.48-54.94,13.58v-2.23c23.57-1.21,39.34-6.88,53.13-15.66,27.62-17.58,54.11-20,97.83-10.82,1.48.31,3.57,0,6.23,0-43.18-23.35-82-21.81-112.56,4.3-9.83,8.39-24,12.75-44.63,13.22v-4.45c21.27,1.64,30.94-4.34,39.53-11.7,26.13-22.37,56.13-26.13,104-13.41.71.19,2.47-.43,5.07-.92-7.49-3.74-14-7.59-21.85-10.79-31.33-12.77-64.34-9-79.53,8.81-2.34,2.77-4.43,5.58-6.64,8.37-6.81,8.58-19,13.77-40.56,12.95v-2.23c29.23-1.78,36.33-11.52,39.92-22.53l-.6.46c31.89-21.08,61-22.24,101.83-4.09,2.3,1,5,1.84,7.57,2.75l14.48,7.66C176.5,312,199,320,232.12,318.9c26.81-.9,53.75-3,79.83-6.06,93-10.73,184.91-23.69,278.73-32.6,59.26-5.63,119.48-7.75,176.67-18.62,20.76-3.94,50.68-1.88,73.71,1.36,28.52,4,54.15,12.15,81.18,18.37C932.23,283.65,942.68,285.56,952.91,287.65ZM209.13,331.2a120.71,120.71,0,0,0,58.06,6c61.84-9.08,123.06-19,184.53-28.61C370,314.06,297.43,336.46,209.13,331.2Z"/><path class="cls-2" d="M0,490.43V486a326.46,326.46,0,0,0,122.71-4.06C80.29,487.12,40,482.61,0,477.05v-4.46c36.26,7.06,73.47,9.84,104.21,6.69L0,463.67v-4.45q94.46,26,192.33,2.7c24-5.74,48.07-11.37,71.92-17.23,38.83-9.53,80.05-13.27,124-10.69,59.18,3.49,118.26,4.15,176.74-2.15,100.68-10.84,190.2-1,271.49,27.63,29,10.21,60.81,19.12,93.27,27,50.76,12.34,104,12.89,157,2.3,21-4.2,42-8.59,62.06-13.64,63.46-16,130.83-19.81,200.68-12.27,107.94,11.67,215.39,24.26,323,36.45v24.52l-20.82-1.5c-50.51-8.76-103.17-8-155.55-6.34-108.42,3.44-210.37,17.49-303.87,42.27C1109,580.36,1030,577.82,951,554.66Q898.3,539.2,844.13,524.72c-53.72-14.24-111.8-22.33-174.48-19.39-134.2,6.28-268.15,2.49-402.16-.69-76.16-1.81-151.39-1.75-222.31,13.94-13.68,3-30,3.59-45.18,5.28v-4.45c18.15-2,36.47-3.76,54.41-6.08,23.65-3.07,46.75-8.91,70.56-9.46,66.45-1.54,133.15-1.2,199.76-1.17,102.1.05,204.68,3.31,306.18-.11,91-3.06,171.09,5.05,246.46,27,35.28,10.26,71,20.22,107.61,29.5q89.6,22.73,181.6,1c37.87-9,76.18-17.72,115.71-25C1373.59,518.22,1469,510.53,1568,511c-63.36-2-126.74-3.84-189.85-2.74-31,.55-63.05,5-91.9,10.54-36.15,7-70.47,16.18-103.84,25.67-71.08,20.22-141.14,19.29-211.78.07-15.5-4.22-31.26-8.26-46.68-12.54-35.74-9.93-70.82-20.38-107.15-29.85-40.81-10.63-85-15.77-132.67-14-27.92,1-55.89,2.39-83.84,2.44q-186.66.3-373.31-.09c-49.19,0-96,4.08-141.78,12.76-26.64,5.05-56.69,6.46-85.21,9.51v-2.23l78.38-8.08-1.58-.84H0v-2.23c28.52.27,57.25,1.1,83.34-5.4ZM1556.62,504c-58.43-3.1-116.34-5.95-174.11-9.3-48.53-2.8-93,1.43-134.75,13-34.31,9.55-69.52,18.46-104.81,27.27-49,12.23-99.39,12.27-149.55,1.72-23.06-4.85-45.25-10.63-67.09-16.55C892.43,511.05,859.69,501,825.58,492c-52.58-13.84-109.9-19.3-170.66-18.34-84.85,1.34-169.71,2.66-254.58,3.43-54.39.49-108.83-.42-163.21,0-45.06.37-89.18,6.83-104.82,12.6,45.73-.63,98.1-1.65,150.49-2,126.88-.9,253.9-.18,380.6-2.75,63.75-1.3,120.86,3.71,174.46,18.54,24.57,6.8,48.56,14,73.3,20.69,30.37,8.17,60.52,16.63,92.11,23.75,51.27,11.55,103,11.34,153.75-1.48,37.35-9.43,75.35-18.35,112.32-28.06,41.94-11,86.64-15.23,134.92-14.54C1454.39,504.58,1504.6,504,1556.62,504ZM182.12,473.51l1.69,2.37c30.25-.95,60.48-2.5,90.76-2.76,119.49-1.05,239.11-.52,358.46-2.88,88.76-1.75,167.3,8.54,240.36,30.44,36.3,10.87,73.58,21.2,111.82,30.62a329.5,329.5,0,0,0,166.81-2c33.9-9.17,68.51-17.8,102.47-26.92,41.56-11.16,86-13.76,133.39-10.83,49.31,3.05,98.89,5.23,148.35,7.79-58.44-6.66-117.66-11-176.57-16-47.69-4.08-91.64-.33-133.22,10.52-24.23,6.32-49.33,12-72.77,18.91-74.16,21.73-147.23,20.16-220.16-1-36-10.44-71.73-21.13-108.2-31.25-45.6-12.66-94.79-21.54-149-21.16-136,1-271.91,2.28-407.76,4.66C239.52,464.54,210.93,470.22,182.12,473.51Zm47.64-11.44c26.62-.94,51.93-2.35,77.3-2.65,102.07-1.23,204.37-.62,306.16-3.56,94.26-2.74,177,7.95,253.5,32.16,33.57,10.63,69.11,20.19,105.39,28.85,50.95,12.16,102.93,11.41,153.56-1.29,32.36-8.12,64.9-16.12,96.75-24.62,46.39-12.39,95.7-14.7,147.82-10.33,50.49,4.24,101.16,8,151.75,12-50.52-7-101.93-11.79-153.32-16.66-71.45-6.77-139-3-202.23,14.32-19.64,5.39-40.35,10.05-61.06,14.59-54,11.87-108.46,11.77-161.4-.93-29-6.95-58.13-14.33-83.76-23.47-89.12-31.79-189-41.06-299.86-33.3-62.66,4.39-126.08,6.27-189.54,1.34C320,444.58,272.93,449.66,229.76,462.07Zm1284.11,24.1,1.56-3.27c-67.78-6.42-135.25-13.65-203.44-19-68.65-5.43-129.78,5.79-188,20.94-82.32,21.42-161.69,18.62-238.87-5.6-35.14-11-70.21-22.16-106.53-32.36-45.41-12.76-95.91-18.62-149-15.32-87.38,5.43-174.37,11.65-262.87,5.4a161,161,0,0,0-27.09.32c-21.75,2.28-43.16,5.22-64.7,7.9,28.42.42,55.72-1.89,81.89-.33a1521.42,1521.42,0,0,0,192.07-.47c103.24-6.86,202.46-4.28,289.76,25.73,16.35,5.62,34.42,10.24,50.82,15.83,84.34,28.77,170.27,32.48,260.3,5,72.69-22.22,152.67-25.67,236.86-16.8C1428.86,478.49,1471.45,482.16,1513.87,486.17Z"/><path class="cls-2" d="M0,113.69v-2.23c36.89-7.08,74.11-13.84,110.54-21.36,29.11-6,56.43-13.87,86-19.26,43.56-7.92,84.33-3.52,120.15,9.67a388.64,388.64,0,0,1,39.08,17c29.07,14.48,65.43,21.37,108,20.22,31.07-.84,62.79-2.12,92.64-5.8,76.14-9.39,151.47-20.15,227-30.52,66.27-9.09,125-3.75,176.52,17.54,23.68,9.78,48.43,19,73,28.36C1098,152,1168.28,154,1241.81,136c33.26-8.15,64.9-17.61,97.68-26.16,38.85-10.13,79.23-18.09,126.06-15.28-36.76-6.4-72.75-4.24-106.86,3.06-37.13,8-72.65,17.42-109.51,25.66-87,19.45-144.73,15.79-217.07-13.23-23.38-9.38-46.19-19.09-70.44-28-38.85-14.27-83.61-18.82-132.32-13.54-28.73,3.11-57,7.17-85.29,11-63,8.56-125.45,18-188.91,25.71-77.31,9.43-145.51,3.87-201.49-25.14-44.89-23.26-102.51-26.72-164-13.74-32,6.75-62.14,15.42-94.6,21.66C64.35,94,31.75,97.8,0,102.55v-2.23c42.37-7.91,84.92-15.63,127-23.81,18.11-3.52,35-8.34,53-12,75.44-15.28,127-12.07,183.13,15.31,46.47,22.66,100.81,29.35,165.27,24.51,18.65-1.39,37.47-2.9,55.47-5.42q107.25-15,214-30.78C870.53,57.54,934.05,64,989.43,87.81c23.25,10,47.19,19.71,72.19,28.79,44,16,93.63,19.62,146.4,10.64,26.06-4.44,51.33-10,75.82-16.07,48.87-12,96.31-25.51,162.64-23.94-47.11-7-76.84-6.26-119.4,2.8-32,6.82-62.86,14.71-94.91,21.47-67,14.16-128,9.83-182.05-13.2-23.37-10-46.46-20-70.61-29.6C946.84,55.78,908.4,49.26,865.25,53.48c-38.42,3.76-76,9.38-113.68,14.56-63.7,8.77-126.47,19.14-191,26.39S436,96.5,388.86,72.84c-8.21-4.12-18-7.66-27.66-11.12C328.56,50,290.9,43.35,250.59,49.16,203.87,55.88,159.68,66.09,113.72,74,76.33,80.4,38,85.64,0,91.4V89.17c48.69-8.72,97.47-17.35,146-26.23,15.23-2.78,29.78-6.31,44.74-9.39C266.57,37.92,335,41.46,392.9,70c43.81,21.59,97.75,27.5,159.57,21.84,20.93-1.92,42.16-3.59,62.4-6.56,71.91-10.56,143.19-22,215.19-32.39,63.87-9.25,120-2.5,168.14,18.51,22.47,9.81,45,19.63,68.63,28.85,42.3,16.51,90.88,20.62,142.85,11.39,32-5.69,63-12.77,93.22-20.23a405.24,405.24,0,0,1,135.56-10.49L1469,84.63l203.53,42.44v2.23l-140.9-24.5-1.44.78,142.34,37.09v2.23l-96.32-21-2.35,1.57,98.67,30.56v2.23l-63-14.85-2.54,1.58,65.59,24.42v2.22c-17.92-6-35.73-12-53.81-17.89-6.19-2-13.08-3.59-19.65-5.37-.46,1.05-.94,2.1-1.41,3.15l-38.41-17.21c-39.19-22.37-84.68-27.54-138.48-14.16-31.57,7.86-60.49,17.85-91,26.62C1297.9,156,1267,166,1233.23,173.52c-73.87,16.38-145.22,13.75-210.07-10.16q-44.88-16.55-87.6-34.29c-51.11-21.18-109-27.88-175.66-18.29-16.43,2.37-32.95,4.64-49.61,6.67-67.4,8.2-134.37,17.26-202.43,24.15C426.91,149.81,351.4,147,299,112.31a25,25,0,0,0-3.4-1.61c-44.3-19.87-88.4-22.93-143-9-27.15,6.93-51.67,16-79.37,22.44C50.3,129.43,24.51,132.14,0,136v-2.23c43.8-3.21,78.66-14.56,114.26-25.31C206.6,80.59,249.1,82.87,323.49,119.54c2.78,1.37,5.65,2.7,8.42,4.08,21.53,10.7,48.36,17.61,80.27,16.95,45-.93,90.84-1.67,134.42-6.21C621,126.61,694,116.2,767.37,106.47c63.7-8.45,118.45-1.37,167.07,18,27.77,11.07,55.51,22.15,83.58,33.06,72.16,28,150.23,29.5,231,8.88,35-8.93,67.13-20.1,100.7-30.16,43-12.88,83.38-28.3,139.62-28.08-37.72-6.14-72.35-1.22-104,6.9-42.14,10.82-81.93,23.48-123.3,34.92-92,25.44-160.71,23.72-245.36-6.36-30.38-10.8-58.75-22.73-88.86-33.69-38.65-14.06-82.31-20-131.68-14.31-27.86,3.21-55.48,6.83-83.23,10.23-66.62,8.17-132.8,17.17-200,24.25C435.68,138.23,365,134,314.15,102.35a68.79,68.79,0,0,0-8.71-3.94c-42.78-18.09-85.68-21.49-137.88-9.55C139,95.38,113.29,104.45,84.5,110.71c-26.94,5.85-56.24,9.51-84.5,14.13v-2.23c32.26-6.3,65.07-12.08,96.58-19.07,26.51-5.87,50.71-13.89,77.32-19.65,45.49-9.85,88.23-6.27,126.49,8.17,10.71,4,21.18,8.4,29.83,13.3,32.51,18.4,74.81,26.14,126.13,24.16,23.73-.92,48.06-1.31,70.87-4.05C606.64,115.91,685.87,106,764.5,95.15c71.26-9.79,132.57-3.63,187.46,19,29.74,12.25,60.75,24,93.29,34.71,58.19,19.11,121.06,20.13,184,5.31,32.72-7.7,63.24-17.34,94.28-26.44,48.28-14.14,96.09-28.64,158.54-26.19A211.16,211.16,0,0,0,1451.28,98c-36-1.34-68.06,4.52-98.41,12.34C1315,120.1,1278.5,131,1240,140.16c-71.76,17.09-141.14,15.09-205.31-8.19-30.14-10.94-59.34-22.41-88.75-33.76q-65.08-25.11-147.6-15c-23.78,2.94-47.24,6.42-70.92,9.55-60.74,8-121.15,16.69-182.4,23.86-83.71,9.8-157.87,5.72-218.56-27.18-40.54-22-89.89-24.26-147.92-12-29.73,6.29-56.81,15.13-86.7,21.23C62.27,104.76,30.69,108.78,0,113.69Z"/><path class="cls-2" d="M1672.5,541.7v2.23c-64.56-13.16-123.56-5.61-180.52,9.79-9.88,2.67-19.72,5.51-30.31,7.48-27.27,5.08-54.13,11.37-82.62,14.25-101.13,10.2-203.07,18.76-304.3,28.76-84.59,8.36-157.93-.58-222.6-26-14.25-5.6-30.2-10.32-44.69-15.81C763.61,545.76,715,541,659.88,548.88c-54.42,7.81-110.17,8.43-166.18,4.35-34-2.47-67.75-5.55-101.61-8.35,43.58,8,87.71,16.15,133.49,19.1,37.95,2.44,80.94,2.66,116.19-3,66.92-10.82,120.47-6.63,167.63,16.79,2.75,1.37,6.41,2.36,9.21,3.71,62.15,30,138.68,37,225.86,30.4,90.86-6.91,182-13.48,273.55-18,68.94-3.42,132-11.53,187-31.08,51.26-18.23,106.55-24.22,167.52-9.9v4.46c-52.16-13.69-102-11.56-150.26,4.19-13.33,4.36-26.4,9.23-41.22,12.23-35,7.08-69.72,16.06-106.65,19.12-99.56,8.26-201,12-300.22,21C961.6,624,867.73,613.43,789.79,574.57c-35-17.47-79.17-21.45-128.52-12.23-57.43,10.72-115.76,9.75-174.3,1.81-3.94-.53-7.77-1.32-11.79-1.62-3.79-.27-7.76-.06-14.17-.06,67,18.93,133.14,26.18,205,8.61,39.4-9.63,74.61-5.21,105.07,9.06C790,589,809.1,597.71,829.05,606c30.36,12.65,66.18,19.22,108.16,18,37.83-1.14,75.71-2,113.46-3.51,90.27-3.71,180.32-9.28,270.75-11.22,76.37-1.63,144.49-9.19,199.54-34.54,45.07-20.75,95.78-24.67,151.54-8.5v4.46c-61.6-16.41-87.3-15.54-142.56,4.88-10.2,3.76-20.45,7.51-30.22,11.49-37.72,15.42-83.09,22.17-132.83,23.83-39.42,1.32-79,2-118.34,3.56q-153.83,6-307.55,12.61c-47.47,1.94-87.29-5.61-121.15-20.19-14.89-6.41-29.42-13-43.72-19.68-43.53-20.33-62.58-22.39-120-10.46-50.58,10.51-100.26,10.07-150.46.13-7.43-1.47-14.82-3-22.23-4.46,11.37,5.53,24.09,9.59,36.71,13.71,34.17,11.15,70.94,13,110,6.15,15.32-2.7,30.66-5.46,45.43-8.71,31.1-6.84,57.56-3.78,80.4,7.17,11.84,5.68,23.53,11.48,34,17.65,37.39,21.91,87.1,29,146.44,26.08,35.2-1.74,70.6-2.74,105.94-3.76q186.25-5.4,372.53-10.53c32.94-.9,60.24-6.8,83.23-17.24,19.73-9,39-18.15,59.62-26.67,24.55-10.15,53-11.17,82.67-5,11.13,2.33,21.39,5.52,32,8.31v2.23c-7.31-1.49-14.9-2.76-21.88-4.52-40.45-10.15-64.61-9-98,5.3-13.14,5.62-25.84,11.49-37.8,17.63-32.59,16.7-73.49,23.63-122.53,24.33-70,1-139.88,3.57-209.81,5.48-94.59,2.58-189.16,5.38-283.79,7.65-36.56.88-67.62-5.74-93.23-17.3-12.21-5.5-23.59-11.41-34.75-17.36-42.46-22.64-54.83-24.57-113.83-11.89-56.34,12.1-108.38,11.67-156.16-7.3C444.15,561.4,383,559.21,314.4,571.58c-34,6.14-70.77,11-107,12.31C138.52,586.28,69.16,585.65,0,586.28v-4.46c21.4.52,42.79,1.37,64.21,1.51,80,.55,159.9.86,236.42-12.62,41.09-7.24,82.83-14,128.76-9.82a259.22,259.22,0,0,0-89.72-8.79c-33.85,2.76-67.39,6.88-100.13,11.69C161.33,575.31,80.9,575.92,0,575.13v-4.45c73.66,3.06,146.45,1.2,218.06-7.62,49.34-6.08,98.7-12.1,142.57-17.47-52.18-6.65-110.16-6.27-167.87,5.22C131.42,563,67.22,568.41,0,564v-2.23c30.31-.47,61.72,1.21,90.7-1.83,64.7-6.76,128.21-15.87,195.29-24.42-60.45-.89-115.16,4.9-170.24,11.43C78.19,551.39,38.66,552.48,0,555.07v-2.23c30.06-1.8,62-1.28,89.87-5.81,107.89-17.56,215-17.88,325-4.07,81.62,10.25,165.19,14.36,248.49,2.26,53.33-7.75,100.3-2.55,143.47,12.85,28.4,10.13,57.22,20.07,86.89,29.42,44.38,14,93.51,19.81,147.58,15.13,45.24-3.91,90.55-7.67,135.64-11.89,124.49-11.65,252.57-18.21,362.3-51.13a73.74,73.74,0,0,1,9.14-1.67C1591,531.19,1632.39,532,1672.5,541.7Z"/><path class="cls-2" d="M1672.5,227.38v13.38l-7-1.75c-44.36-15.27-87.65-31.22-133.39-45.6-42.88-13.47-90.17-13.4-136.22-3-27.15,6.12-52.59,13.81-78.55,21-28.77,7.95-56.23,17-86.08,24-62.78,14.75-125.63,13.76-185.33-3.77-24.08-7.07-45.89-15.71-68.78-23.6-23.54-8.11-46.17-16.88-70.94-24.15a341.31,341.31,0,0,0-129.63-12.5q-85.51,8.42-169.78,19.37c-85.78,11-170.14,10.74-255.34-1.7-42.12-6.14-85.91-10.24-129.46-14.11C155.57,169,91,167.05,41.23,194.66,32.79,199.34,14,200.22,0,202.86v-2.23c20.46-5.95,42.94-10.89,60.92-18.1,27.7-11.11,57.06-15.82,94.61-14.46,75.28,2.72,148,10.1,219.78,20.17,49.25,6.92,99.86,11.11,151,6,64.22-6.42,127.91-14,191.51-21.54,65.91-7.87,130.1-9.58,191,7.53,1.27.36,3.83-.22,7.87-.52-41.41-15.15-86.57-22.89-137.08-17.85-71.47,7.13-142,16.16-212.92,24.41-82,9.54-161.29,8.06-237.47-10.37a568.1,568.1,0,0,0-61.71-11.22c-78.93-10-155.58-14.18-219.61,17.32C37,187.34,16.22,188.58,0,191.71v-2.22c22.13-6.15,46.51-11.14,65.86-18.73C95,159.34,127.11,153.84,165,154.08c50.87.32,99.66,4.78,146.22,14.2,14.83,3,30.32,5.35,45.5,8l-.94-.32c41.86,12.26,89.14,16.14,136.38,12.09,74.18-6.35,148.21-14,220.42-23.85,92.17-12.59,171.14-6.24,241.51,24.1,27.79,12,59.5,22.35,91.57,32,50.57,15.22,106.34,18,162.64,7.58,32.47-6,63.28-14.12,93.45-22.32,36.63-9.94,71.16-21.45,107.79-31.39,39.58-10.75,80.68-10.3,118.82,1.42,27.09,8.32,51.9,18.16,77.55,27.42C1628.25,211.07,1650.32,219.25,1672.5,227.38ZM1351,194.19l2.59,2c7-1.64,14.19-3.17,21-4.94,61.26-15.83,121-15.09,178.32,3.8,27.25,9,53.39,18.65,80.14,27.94,7.22,2.52,14.79,4.83,22.2,7.23-33.54-16.28-69.45-30.95-106.73-44.87-48.86-18.25-100.5-20.56-154.15-3.76C1380.22,186,1365.43,190,1351,194.19ZM1036,222.77c62.27,26.72,173.51,24.59,241.58-5.79C1195.56,238.75,1117.21,245.78,1036,222.77Z"/><path class="cls-2" d="M1672.5,416.86c-96.41-19-194.83-25.3-298.27-12.14-113.31,14.43-226.57,8.18-339.72-2.18-142.65-13.07-285.7-25.23-428.48-38-50.76-4.54-99.92-3.62-146.87,6.92-50.36,11.3-102.23,12.63-156,5.9q-87.07-10.87-167.6,8C93,395.4,48.29,400.49,0,396.8v-4.46c47.92,6,91.2-.76,133.13-10.2a484.85,484.85,0,0,1,167.8-8.26c50.5,6.2,100.82,6.83,149.22-4.39,54-12.52,110.49-12.6,168.67-7.48,172.12,15.15,344.22,30.36,516.7,44.61,56.4,4.66,114,5.71,166.92.79-49.63-1.6-103.88-1-156.06-5.45C974.83,387.45,804.05,371.09,633,355.5c-67.51-6.15-135.25-12.08-199.63,5.13-53.3,14.24-108.14,16-165.81,6.07-50.19-8.61-98.52-5.54-145.4,5.65-15.94,3.81-32.49,8.11-49.82,9.49C48.73,383.72,24.15,383,0,383.42V381.2c44.1,4.08,82.77-3.13,120.32-12.07,46.73-11.12,95.26-14.59,145.25-5.92,59.66,10.36,115.3,7.68,170.21-6.7,39.77-10.41,83.61-13.3,129-9.38,109.06,9.41,218,19.14,327.07,28.47,106.64,9.11,213.1,18.81,320.27,26.43,55,3.92,111.06,2.21,164.08-7.59l-1.2.26c14.34-1.31,28.83-2.35,43-4,55-6.36,110.07-13,167.38-7,29.34,3.05,58.1,7.22,87.13,10.89V399c-25.79-3.68-51.23-8-77.43-10.92-77-8.68-148.85,2.67-221.07,12.31a92,92,0,0,0,14.33-.35c57.43-5.91,115.31-9.2,173.36-2.6,37.35,4.24,73.9,9.91,110.81,14.93Z"/><path class="cls-2" d="M1531.18,633.22l-16.8,10.61c-23.15,10.73-50.27,17.06-84.24,18.62-167.43,7.67-335.24,10.61-503.33,7.59-37.11-.66-73.83-5.66-110.73-8.67l-55-18.43c-2.48-1-5.16-1.82-7.42-2.88-38.39-17.87-52.23-18.6-97.63-5.06-4.11,1.23-8.16,2.51-12.32,3.71-37.17,10.67-75.16,12.1-114.11,2-17.8-4.63-34.85-10-53.45-13.82-44.15-9.13-87.94-8.7-130.06,3L312.43,633c-37.57,1.44-75.26,4.47-112.7,4-66.65-.9-133.16-4-199.73-6.11v-2.23c27.09.41,54.19.74,81.26,1.23,60.73,1.1,121.43,2.44,182.18,3.26,10.71.15,21.56-1.75,28.31-2.34L0,619.72v-2.23c51.55,1.84,103.14,3.51,154.64,5.59,65.59,2.63,133.62,8.21,194.93-4.29,69.56-14.19,128.49-13.24,186.56,9.59,23.64,9.3,53,9.34,81.21,3,16.87-3.78,33.17-8.1,49.46-12.4,36.5-9.62,53.24-8.64,82.64,4.79,4.32,2,10.08,3.31,15.17,5l16.94,10c3,2.52,5.05,5.36,9,7.49C819.37,661.66,858,666,900.81,666.61c174.38,2.55,348.41.61,522.09-7.14,39.62-1.77,73.48-7.67,94-24.25l16.81-12c3.67-2,7.43-3.87,11-5.86,32.14-18,63.35-20.19,106.9-7.59,6.78,2,13.89,3.68,20.86,5.52v4.46c-6.26-1.75-12.66-3.41-18.76-5.26-48.44-14.69-78.49-12-111.42,10.15C1538.22,627.36,1534.87,630.35,1531.18,633.22ZM755.45,634.4c-22.73-19.21-47.3-22.63-86.42-12.1-12.71,3.43-25.33,6.92-38.29,10.14-36.79,9.16-72.15,8.5-106.15-3.13-11.77-4-24.28-7.64-36.74-11.24-35.78-10.31-71.37-8.38-113.1,1.53,15.92-.93,25.29-1.52,34.69-2,42.44-2.27,76.55,6.86,109.76,16.7,42.39,12.57,83.66,13.18,126.38,0C699.2,617.78,704.77,618.07,755.45,634.4Z"/><path class="cls-2" d="M1672.5,196.18c-15.38-6.51-31.85-12.58-45.93-19.61-24.81-12.39-46.38-26.18-72.54-37.92-43.54-19.53-78.45-21.62-131-7.29-36.5,9.95-68.84,22.94-104.72,33.4-37.1,10.82-74.52,22-114.88,29.8-57,11-113.85,6.81-163.81-9.78-31.75-10.54-60.55-22.88-90.84-34.31-18.3-6.91-36.06-14.2-55.61-20.32-35-10.94-72.82-13.62-115.12-8.66q-149.17,17.52-299.5,33c-23.63,2.44-49.25,1.79-73.83,1.27-33.35-.7-62.15-6.72-84.47-18.31-9.18-4.77-18.31-9.57-27.86-14.19-44.72-21.61-109.55-24.74-163.1-7.56-18.09,5.8-34.51,12.65-52.14,18.76C54.49,142.34,29.69,147.83,0,147.13V144.9c39.88-1.6,70.74-11,99.28-22.78,29.28-12,61.95-20.78,103.57-20.52,34.62.22,68.63,4.05,87.93,16.81,58.88,39,140.79,39.36,228.77,29.92,83.15-8.93,166-18.49,248.2-29.1,53.85-7,101-3.1,143.54,12.55,26.76,9.86,51.62,20.74,78,30.8,20.1,7.65,40.25,15.41,62.19,21.89,55.37,16.34,114.63,16.05,171.68,3.2,37.91-8.55,72-20.55,107.44-31.28,32-9.72,62.72-20.38,95.41-29.62,41.8-11.8,82.71-10.34,120.67,4.33,3.58,1.39,8.32,2.17,12.51,3.23l38.42,17.21,5.14,3.94,69.72,36.23Z"/><path class="cls-2" d="M1672.5,222.92c-15.16-5.43-31.1-10.47-45.32-16.37-28.44-11.81-54.77-24.69-84.12-36-40.32-15.54-84.63-17.14-129.66-3.73-35,10.42-68.18,22.27-104.46,31.69-39.61,10.28-80.53,20.14-123.32,27.17-42.55,7-86.95,3.81-126.32-6.63-26.83-7.12-51.9-15.69-76.7-24.23-19-6.52-36.57-13.87-54.25-21.11-53.51-21.91-114.93-27.43-183.76-18.61C690.77,162,637,169,582.9,175.42c-75.47,9-151.24,15.27-227.1.53l.94.32c-19.37-6-38.18-12.38-58.22-17.86-84.17-23-157.79-20-234,7.72C46.3,172.77,21.69,175.85,0,180.57v-2.23q34.68-9,69.35-18c23.15-6,44.87-14.32,69.79-17.43,60-7.48,116.51-.89,168.8,13.92,11.41,3.23,24.19,5.48,36.35,8.18l21,6.5c42.94,13.12,91.36,11.65,137.67,7.63,65.25-5.67,129.25-14.28,193.77-21.64,3.18-.37,6.32-.84,9.39-1.36,97.34-16.58,181.8-8.4,254.82,25.53,21.61,10,47.43,18.37,72.56,26.72,58.91,19.59,123.35,22.41,188.86,8.59,37-7.79,70.91-18.58,105.64-28.43,31.31-8.88,61.2-18.79,92.88-27.38,38.42-10.41,77.89-9.55,113.34,2.6,27.38,9.38,52,20.41,77.43,30.91,20.6,8.51,40.59,17.33,60.85,26Z"/><path class="cls-2" d="M1672.5,207.32q-32.13-15.3-64.27-30.6c-23.74-11.29-45.89-23.37-71.66-33.62-28.59-11.37-63.3-13.11-96.56-4.32s-64.42,19.2-96.51,28.9c-37.54,11.33-73.12,24.38-113.07,33.6-71.75,16.55-142.27,13.16-205.82-9.8-33.4-12.07-65.51-24.91-97.14-37.91-51-21-106.41-27.47-175.16-18.34-89.81,11.92-181.7,20.79-273.19,30-49.45,5-98.23,2.63-143-9.43l.83.45c-19.26-8.94-37.28-18.52-58.08-26.65-29.47-11.52-64.63-15-103.4-12-35.9,2.72-62.16,12.56-88.57,22.59C61.63,149.72,35.69,158.76,0,158.28v-2.23c36.12-2,64-10.89,90.22-21.44,29.41-11.84,61.71-20.82,103.15-21.28,39.29-.43,72.63,5.3,100.61,17.59,6.48,2.85,13.26,5.62,18.88,8.8,34,19.17,79.7,27.19,131.53,23.37,78.56-5.78,156.36-13.75,234.18-21.43,32.89-3.24,65-8.1,97.44-12.22,45.24-5.75,86.77-1.71,123.91,10.64,23.13,7.7,44.46,16.5,66.5,24.85,21.42,8.11,42.25,16.57,64.19,24.39,61.16,21.81,128.24,24.59,196.66,8.94,37.09-8.49,70.44-20.34,105.17-30.87,33.4-10.14,65.41-21.29,99.84-30.64,39.84-10.82,79.73-8.51,113.93,5.44,23.08,9.41,43.1,20.34,64.4,30.62q31,15,61.89,30.05Z"/><path class="cls-2" d="M365.29,171.52l-21-6.5c-20.3-7.47-39.63-15.57-61.09-22.29-50.65-15.83-105-18.21-160-5.22-19.3,4.55-34.44,12.61-53.45,17.51C47.62,160.72,23.34,164.7,0,169.43v-2.24c36-2.54,61.4-13.21,88.11-23.05,65.21-24,143.69-24.17,209.9-.74C310.64,147.87,324,152,337,156.22l-.83-.45c33.27,17.52,79.09,19.5,123.71,16.56,64.12-4.23,127.38-11.34,190.6-18,37.61-4,74.24-9.78,111.64-14.19,60.41-7.13,114.19-.83,161.15,17.53,28,11,55.21,22.34,83.8,33,85.18,31.7,156.37,34.66,251.86,9.62,32.64-8.55,62.39-19.34,93.55-29,20.33-6.33,40.21-13,61.38-18.72,56.84-15.32,93.77-14.15,143.33,6,26.81,10.89,49.49,23.82,74.54,35.61,13,6.14,27.18,11.81,40.82,17.69v4.46c-25.7-12-51-24.13-77.25-35.83-21-9.35-42.06-18.83-65.28-27-28.55-10-61.18-11-92.58-2.69-31.11,8.27-60.72,17.7-91,26.61-36.48,10.72-71.36,22.83-109.82,31.83-74.83,17.5-148,14.85-214.85-9.2-28.92-10.41-57.53-21.13-84.08-32.74-58.36-25.49-124.45-32.11-202.11-21.15-67.43,9.51-135.94,17.56-204.51,25.31C476.18,177.58,420.55,178.93,365.29,171.52Z"/><path class="cls-2" d="M781.55,638.76l-16.94-10c-42.75-29.4-51.85-30.31-116.13-11.68-57.76,16.74-77.92,16.66-132.55-2.47-36.33-12.71-73.36-19.47-117.95-8.67-61.35,14.86-127.41,15.72-194.59,12.52Q101.68,613.61,0,608.57v-2.23c58.17,2.47,116.43,4.57,174.48,7.49,78.74,3.95,156,4.95,229.33-12.4,32.68-7.75,65.57-5.46,95.74,4.07q15.18,4.8,30,9.8c40.29,13.58,60.14,14.05,103.54,2.17,13.38-3.66,26.21-7.73,39.7-11.3,31.17-8.24,50.08-6.88,73.49,5.66,12.18,6.53,23,13.57,34.28,20.44,25.25,15.38,58.49,23.57,101.51,23.08q241.06-2.7,482.12-5.4c20.6-.24,41.19-1,61.79-1,41.89-.07,72.27-8.71,93.39-24.6,8-6.05,15.23-12.35,23.93-18.19,29.84-20.06,62.77-22.66,106.78-8.78,7.36,2.33,14.92,4.52,22.39,6.76v4.46C1659,604.36,1646,599.8,1632,596c-19-5.1-41.31-6.79-57.3.56-16.53,7.59-27.5,17.63-40.9,26.6l-16.81,12c-47.19,20-106.43,17.49-164.29,18.21-60,.76-119.9,2.67-179.88,3.3-96.14,1-192.3,1.32-288.45,2.06C843.19,659.1,809,652.54,781.55,638.76Z"/><path class="cls-2" d="M0,593c100.87,3.36,201.83,9.47,302.76,1.72,26.36-2,52.1-6.9,76.81-11.8,45.52-9,86.38-6.83,124.17,7.67,9.41,3.61,19,7.11,28.74,10.56,36.76,13,69.58,13.51,108.52,1.61,71.64-21.88,76.26-22,126.38,10.27,34,21.91,76,33.21,137.09,31.81,150.56-3.44,301.26-5.6,451.91-8.27,22.23-.39,44.46-.91,66.7-1.07,39.36-.28,69.53-8,91.45-22.5,9.27-6.13,17.4-12.62,27-18.63,31.61-19.8,65.49-22.38,110-8.77,6.56,2,14,3.46,21,5.17v4.46c-10.34-2.9-20.73-5.76-31-8.68-33.93-9.65-61.4-8-87.11,5.86-10,5.38-18.06,11.51-26.17,17.53-23.91,17.71-57.2,28.27-104.38,29.1-172.15,3-344.33,5.79-516.42,9.44-65.3,1.39-113.09-10-147-34.6-3.48-2.51-7.73-4.81-11.57-7.23-30.29-19.11-46.31-20.2-88.9-6-59.68,19.84-89.38,20.26-144.33-1.84-46.26-18.61-92.7-22.36-149.07-9.85-71.41,15.83-149,13.72-225.75,12-46.93-1-93.83-2.31-140.74-3.48Z"/><path class="cls-2" d="M1659,257.51c-75.51-19-148.3-43.29-241.47-36.43-33.77,2.48-65.81,11-97.39,17.87-28.78,6.3-55.3,14.68-83.83,21.26-72.53,16.7-143,14.53-209.67-6.64-25.54-8.11-49.66-17.12-74.58-25.64-15.07-5.16-30.09-10.37-45.7-15.18a385.25,385.25,0,0,0-180.85-11.58C618.76,220.05,508.1,223.23,395.6,223.08c-50.19-.07-100.41,1-150.56,2.11-34.9.78-66.19-2.69-96.22-11-44-12.21-58.11-10.29-94,6.17C39.09,227.53,18.42,232.53,0,238.53v-4.46c16.5-5.2,35.3-9.4,49.05-15.79,39.59-18.41,54.33-19.15,105.42-7.13,22.54,5.31,49.21,10.09,73.88,10,110.33-.55,220.75-2,330.83-5.17A834.82,834.82,0,0,0,683.6,203.15c99.15-18.3,186-11.63,266.32,19.53,27.38,10.64,56.56,20.45,86.38,29.68,59.21,18.34,122.62,20.55,187.33,6.61,32.6-7,64.5-15,94.8-23.82,79.25-23.18,159.69-24.67,243.25-5.24,36.47,8.48,73.85,16.17,110.82,24.22v4.46Z"/><path class="cls-2" d="M1672.5,535c-66.58-9.93-128.81-3.26-191.9,8C1426.53,552.6,1370,559.58,1314,566.78c-73.55,9.47-147.7,18-221.58,27-59.16,7.17-114.52,2.8-165.62-11.9-33.29-9.58-66.09-19.59-97.77-30.22C776.94,534.15,721,527.79,656.88,535c-94.87,10.66-190,5.2-284.73-1.18-87.52-5.89-174.95-10.29-262.5-.17Q54.87,540,0,546.16V541.7c17.75-1.07,36.89-.56,53-3.45,98.64-17.66,199.48-16.11,301.65-9,87.08,6,174.37,11.91,262.81,5.75,20.31-1.41,40.62-3,60.68-5,46.12-4.56,88.46-.25,127.29,11.12,31.72,9.29,63,18.92,93.34,29.12,67.56,22.75,140.42,28.18,221.62,17.5,86-11.31,173.44-20.3,259.48-31.5,41.7-5.42,81.63-13.6,122.39-20.51,56-9.49,112.41-14.42,170.21-3Z"/><path class="cls-2" d="M1672.5,95.86c-52.32-4.71-104.73-9.24-156.93-14.21-34.6-3.29-68.69-7.66-103.35-10.76-50.34-4.5-99.34-2.71-147.82,6C1151,97.08,1122.17,93.65,1039.89,52.65c-7.74-3.86-15.84-7.57-23.71-11.37C982.57,25,941.05,19.89,894.54,25.87c-38.64,5-76.41,11.47-114,18C715.32,55.13,651.79,68.71,581,72.06c-44.82,2.12-85-2.45-119.8-15.67-10.72-4.07-21.91-7.88-32.4-12.06-48.68-19.4-104.92-24.64-165.89-16-43.81,6.22-85.62,15.28-129.09,22.06C89.7,57.28,44.64,62.93,0,69.11V64.65c27.06-2.67,55.15-4,80.93-8.28,47.9-7.88,93.57-18.59,141.85-25.88,33-5,68.69-7.55,103.56-8.66,40.56-1.29,77.1,6.65,104.63,19.44,68,31.6,146.2,33.68,231.8,19C712,51.87,760.66,42.71,810.15,34.6c30.83-5.05,62.44-9.3,94.24-13,41.84-4.82,78.41.8,108.89,14.12q29.25,12.8,56.16,26.66c44.76,23,98.08,28,160.69,17,27.54-4.83,55.45-9.69,84.15-12.67,52.13-5.39,103.11.46,153.8,5.69Q1570.31,83,1672.5,93.63Z"/><path class="cls-2" d="M0,211.78c18.28-5.42,39.34-9.61,54.24-16.5,29.76-13.77,61.48-16.65,103-12.65,56.91,5.46,115.41,7.59,173.2,11.23,45.65,2.87,91.08,6.7,136.93,8.6,67.68,2.8,132.33-5,196.46-13.75,29.11-4,58.5-7.63,88.17-10.63,64.15-6.48,122.78-.23,175,17.47,32.9,11.15,64.54,23.06,97,34.48,71,25,145.65,27.06,223,6.42,33.28-8.89,65.88-18.31,98.23-27.88C1419,186.76,1491.62,187,1563.88,210c24.23,7.69,48.64,15.29,73.4,22.63,8.75,2.6,18.8,4.31,28.24,6.43l7,1.75v4.45l-6.58.25c-40.93-12.41-81.3-25.21-122.91-37.15-58.24-16.7-118-17-177.37-1-36,9.73-71,20.3-107,30-89.22,24.06-159.18,22.39-242.61-5.85-26.34-8.92-51.61-18.5-77-28-63.38-23.62-134.24-30-213.17-19.63-49.78,6.54-99.49,13.38-150,18.51-68.77,7-137.68,2.73-206.36-2.08-43.12-3-86.59-5-129.77-7.82-30.87-2-62.07-3.75-92.13-7.3-33.4-3.94-59.75-.4-82.94,10.52-9.09,4.28-18.33,8.78-29.3,11.9-10.57,3-23.47,4.32-35.35,6.38Z"/><path class="cls-2" d="M1438.46,80.91a362.85,362.85,0,0,0-129.67.63c-34.24,6.3-67.69,13.56-102.46,19.16-49.23,7.93-94.48,3.25-133.33-12.29-22.15-8.86-43.24-18.32-63.53-28C966.91,40,916.68,32.75,857.17,41.93c-64.57,10-128.11,21.33-193.23,30.46-40.55,5.68-82.82,9.51-125,12-39.18,2.34-74.54-4.26-104.6-16-9.35-3.65-19-7.14-27.95-11C355.93,35.73,297.18,30.77,232.86,41.54c-43.11,7.21-84.11,17-127.16,24.3C71.33,71.68,35.3,75.53,0,80.26V78c58.21-10,116.05-20.5,174.77-29.86,37-5.89,74.7-11.55,113.16-14.62,39-3.12,74.6,3.67,105.47,14.84,7.06,2.55,14.73,4.89,20.82,7.87,54,26.5,120.62,30.31,192.72,20.39,57.4-7.9,113.46-17.75,170.35-26.43,31.92-4.87,63.92-9.82,96.59-13.46,46.32-5.17,88.44-.51,123.64,14.42,21,8.91,41.62,18,61.57,27.4,49.33,23.21,106.28,28,171.08,15.05,17.3-3.47,34.93-6.67,51.66-10.64,52.6-12.47,107.33-13.84,162.89-5.75,50.86,7.42,100.55,16.43,151.35,23.93,24.78,3.65,50.91,5.44,76.43,8.08v4.45c-33.88-4.32-68-8.27-101.59-13.06-34.28-4.9-68-10.63-101.94-16Z"/><path class="cls-2" d="M1672.5,528.32c-64.09-8.11-127.07-4.47-189.83,3.39-112.5,14.09-226.66,25.64-334.56,46.57A429.67,429.67,0,0,1,947.57,570c-30.7-8.67-61.59-17.27-91-26.77C791.16,522.11,722.14,513,640.36,521c-96.92,9.49-195.32,3.11-293-.42-83.66-3-167.58-8.28-250.82,1.13C63.92,525.43,32.14,530.55,0,535v-4.46c14.25-1.37,29.45-1.74,42.59-4.27,66.32-12.76,135.53-14.8,206.16-12.48,79.72,2.62,159.36,6.72,239.16,7.42,59.76.54,119.92-2.43,179.53-5.43,48.13-2.43,93.75-1.19,136.51,9.62,21.52,5.44,42.6,11.27,63.45,17.23,25,7.15,49.67,14.6,74.38,22,67.68,20.24,138.7,23.55,213.73,9,121.66-23.54,250.13-37,378.51-50,37.54-3.81,78.35-1,117.66-1.28l20.82,1.5Z"/><path class="cls-2" d="M1672.5,494.88c-111.45-12.94-222.61-26.47-334.5-38.62A578.54,578.54,0,0,0,1152.78,466c-30.29,6.54-61.61,12.64-93.86,16.7-56.19,7.06-109.67,1.18-158.85-11.88-33.29-8.84-65.4-18.64-97-28.69-70.17-22.35-145.9-30.08-229.3-18.84-60.46,8.14-121.45,8.62-183.23,3.81a355,355,0,0,0-107.85,7.77c-28.55,6.6-56.8,13.45-85.17,20.2-60.44,14.39-120.94,15.31-181.65.29-5-1.22-10.6-1.9-15.92-2.83v-4.46c73.65,20.94,146.43,18.51,218.6-1.6,4.89-1.37,10.34-2.35,15.12-3.77C292.1,425.3,355.1,419,424.4,425.42c47.94,4.48,95.4,1.32,141.5-4.93,89.71-12.14,170.39-4.32,245.28,20.11,30,9.78,61,19,92.94,27.42,64.08,16.91,130.75,18.46,198.8,4.68,2.25-.45,4.7-.75,6.79-1.32,97.65-26.33,200-25.29,305.38-11.45,78.17,10.26,157,19.46,235.64,29,7,.86,14.5,1,21.77,1.46Z"/><path class="cls-2" d="M1665.92,245.46l6.58-.25v6.69q-47.34-11.91-94.72-23.81-22.71-5.66-45.83-11c-60-13.68-119.12-12.63-176.91,2.58-33.43,8.8-66.36,18-99.45,27-85.53,23.42-167.19,20.68-245.21-7.27q-41.61-14.91-83.3-29.77c-61.64-21.92-131.33-29-204.57-16.58-121.6,20.58-246.25,21.7-372.95,17.1-30.36-1.1-61-1.07-91.47-1.14-39.94-.09-78.65-2-115.24-10.21-30.38-6.77-56-3.27-80.3,7.56C44.25,214.59,21,220.49,0,227.38v-4.46c17.94-5.58,37.89-10.21,53.42-16.93,36.3-15.69,51.65-16.87,99.41-9.35A721.57,721.57,0,0,0,241.07,205c73.91,2.31,148,3.29,222.11,4.38,75.52,1.11,149.25-3.21,220.93-14.7,27-4.32,55.34-7.37,83.64-9.33,57.52-4,109.34,3.44,155.32,19.09,31.53,10.72,62.35,21.88,93.3,32.95C1090.86,264,1168.9,266,1250.3,244.22c24.75-6.63,49.79-13.11,73.54-20.43,81-24.92,162.29-25.32,245-1.95,23.7,6.69,48,13,72.31,19.19C1648.82,243,1657.64,244,1665.92,245.46Z"/><path class="cls-2" d="M0,53.51c32.57-3.39,66-5.6,97.49-10.44C148,35.31,196.92,25.39,247.12,17.14c84.27-13.86,161.65-9.71,228.93,19.1,52,22.27,113.91,25.9,179.18,16,55.21-8.39,108.34-19.53,163-28.68,38.35-6.42,77.17-12.63,116.85-17,37.16-4,70,2.43,96.21,14.68,20.56,9.61,39.78,19.8,59.62,29.72,33.56,16.78,75.7,23.55,122.76,16.11,104.66-16.55,207.89-8.09,312,.25,48.51,3.88,97.83,5.69,146.78,8.44V78c-61.12-3.31-122.41-6.1-183.31-10.1-66.79-4.38-133.17-11.18-201-5.4-28.22,2.4-55.82,6.24-83.85,9.15-44.1,4.59-81.49-1.43-112.45-15.69-17.25-7.95-33.64-16.33-49.21-25-37.81-21-85.09-27.21-141.12-18.23-37.12,5.95-72.93,13.54-109.89,19.71C737.75,41.5,684.16,51.14,629,58.17c-52.93,6.74-102.83,1.1-145.71-15.1-1.26-.47-2.78-.82-3.93-1.34C404.59,8.1,318.61,7,226.15,23.78,177.31,32.64,128.61,41.7,79,49.59c-25.36,4-52.6,5.66-79,8.37Z"/><path class="cls-2" d="M0,436.92c58.56,13,117.48,12.55,176.72,1,34-6.64,67.89-13.38,102.07-19.82,41.42-7.81,84.36-10.57,128.12-5.09a486.18,486.18,0,0,0,133.93-1.5c95.73-14.67,183-6.94,266,17.31,45.71,13.36,93,25.42,147.52,30.24,62.94,5.58,126,3.9,185.48-5.59,117.41-18.72,233.28-14.54,349.79.18q91.53,11.58,182.89,23.41v2.23c-34.91-4-69.69-8.33-104.78-12-70.37-7.45-140.5-15.58-211.52-21.55-63.39-5.34-126.49-1.44-187.55,7.85-125.37,19.08-244.46,15.76-355.88-18.94-19.52-6.08-41.35-10.73-62.69-15.52a477.74,477.74,0,0,0-141.35-10.77c-25.13,1.89-49.94,4.71-74.65,7.56-39.75,4.58-79.47,6-119.62,1.22-52.59-6.3-102.78-2.79-151.43,7.42-17.15,3.6-34.89,6.66-51.8,10.46C142.72,450.41,73,456.37,0,441.38Z"/><path class="cls-2" d="M1672.5,465.91c-56.28-7-113.12-13.19-168.71-21.15-101.9-14.61-203.5-15-306.7-3-145.61,16.88-285.68,11.6-417.25-23.53-13.39-3.57-28-6.26-42.06-9.3-62.83-13.56-127.53-16.67-194.34-6.77-52.68,7.8-105.51,10.52-160.17,3.74-42.92-5.32-85.09-1.35-126,5.08-21,3.29-41.85,6.85-61.84,11.16C132.32,435.7,68.09,442,0,430.24v-4.46c53.87,10.54,107.41,9.08,160.73-.88,24.32-4.54,48.75-9,73-13.61,54.63-10.49,110.86-13.88,169-7.38,37.93,4.25,75.81,4,112-2,95.37-15.85,184.14-8.89,269.89,13.41,67.09,17.46,138.41,30.75,216.59,31,59.63.18,121.27-.4,178.59-6.84,119-13.36,234.19-12.24,350.21,4.87,46.67,6.89,95,11.45,142.61,17.06Z"/><path class="cls-2" d="M1672.5,450.3c-41-5.46-82.59-10.27-123-16.52-94.85-14.64-190.11-14.89-287.39-5.24-171.71,17-338.82,10.78-499.93-22.39-28.36-5.84-58.06-10.46-87.6-15-46.5-7.2-94.09-8.6-140.69-.95-65.36,10.72-131.41,12.64-199.25,6.45-46.21-4.22-90,.43-132.66,8.31-7.62,1.41-15.43,2.62-22.87,4.19C121.75,421.18,63.14,428.34,0,419.09v-4.46c48.06,8.09,95.33,6.44,142-2.36,11.4-2.14,23.11-4,34.2-6.4,62.31-13.63,127.23-17,195-10.8,42.94,3.92,85.74,3,126.62-4.05,78.67-13.58,154.55-10.22,230.15,5,78.29,15.75,158,29.34,244,34.76,97.67,6.15,194.5,4.67,289.78-5.52,106.22-11.37,209-7.54,311.26,7.95,32.63,4.94,66.32,8.47,99.52,12.65Z"/><path class="cls-2" d="M1672.5,432.47c-25.17-3.18-50.88-5.67-75.41-9.64-90.15-14.6-180.78-16.59-274.42-6.68-146.16,15.46-291.73,8.42-435.5-7.22-83.1-9.05-164.81-20.67-247.29-30.9-50.65-6.27-101.22-6.48-150,3.36-54.33,11-110,11.36-166.86,5.68a512.38,512.38,0,0,0-147.41,6.56c-28,5.3-56.07,11.64-85.5,14C61,410,30.12,408,0,408v-4.46c47.55,7,92.4,2.77,136.69-6.07,47.57-9.5,95.62-18.73,149.61-16,23.72,1.19,47.46,2.61,70.87,4.68,38.46,3.41,76.08,2.17,111.4-5,67.79-13.83,135.14-11.95,204.83-2.87,94,12.25,188.37,24.38,283.92,33.78a1933.18,1933.18,0,0,0,399.54-1.85c72.63-7.93,144-4.39,214.36,5.8,33.7,4.88,67.51,9.57,101.28,14.35Z"/><path class="cls-2" d="M0,717.8c79.72-8.68,158.85-18.84,239.42-25.4,36.66-3,76.91-.71,114.21,2.4,71,5.92,140.42,16,211.67,20.81,51.48,3.49,104.87,1.15,157.38,1.77q59.05.71,118,2.39c52.46,1.53,104.85,3.55,157.27,5.36l105.47,28.34h-24.74l-56.61-18.35c-20.84-2.73-41.33-6.68-62.59-7.91-40.69-2.36-81.79-3.39-122.79-4.55-37.73-1.07-76-3.65-113.23-1.93-101.93,4.71-200.06-2.47-297.41-14.88-27.66-3.52-55.94-6.06-83.89-9.14-46.8-5.18-91.3-2.92-138.07,3.23C137.44,708.72,68.17,713.53,0,720Z"/><path class="cls-2" d="M1022.11,735.12l56.61,18.35h-14.85c-21.94-11.57-50.17-17.55-83.56-17.86-109.4-1-219-.22-328.17-3.09-76-2-152.11-7.35-227-14-82.59-7.29-162.68-11.38-246-.13-57.86,7.82-119.34,10.18-179.2,15V729c78.42-6.5,157.21-12.2,235.12-19.75,59.52-5.77,116.63-.79,173.39,5,113.88,11.64,228.37,16.15,345.35,14.94C843.13,728.22,932.69,732.92,1022.11,735.12Z"/><path class="cls-2" d="M0,740.09q103.23-4.73,206.43-9.45c92.34-4.18,184.08-1.53,276.1,3.19,71.05,3.64,142.75,5.49,214.26,6.2,94.69.93,189.46-.35,284.18,0,27.22.11,53.58,3.53,73,13.42h-9.89c-27.07-3.67-53.86-9.91-81.26-10.51-64.89-1.41-130.19-1.24-195.09.27-110.81,2.57-220.63-.93-330-8-99.66-6.47-198.87-3.29-298.09,1.54C93,739,46.53,741.92,0,744.55Z"/><path class="cls-2" d="M410.71,0c32.5,9.08,66.77,17.1,97.09,27.47C554.39,43.39,606,50.66,660.23,41.9,735.22,29.79,807.4,14.14,880.79,0h19.79C816,18.74,733.78,40,639.1,47.43,595.41,50.84,555.74,46.27,519.59,35c-8.8-2.75-18-5.35-25.87-8.57C427.45-.63,351.24-4.08,269.8,8.05c-53.87,8-106.18,18.16-160.07,26.15C74,39.5,36.63,42.69,0,46.82V42.36c11.38-.46,23.51.08,34-1.53C121.82,27.45,209.31,13.67,296.89,0Z"/><path class="cls-2" d="M0,751.24q124.8-.11,249.6-.2,275.64.21,551.28.53c37,0,74.09-1.85,111.09-1.56,34.18.26,68.28,2.24,102.42,3.46q-496.09,0-992.18-.1C14.8,753.37,7.4,752,0,751.24Z"/><path class="cls-2" d="M1039.13,0c25.34,13,50.12,26.25,76.15,39,30.48,14.9,70.35,17.45,111.64,14.06,96.29-7.91,191.92-3.32,287.92.87,52.35,2.29,105.09,2.76,157.66,4.05v4.46c-101.52-3.57-202.94-8.17-304.61-10.27-48-1-96.81,1.87-144.76,4.72-50.23,3-90.31-3.56-123.66-20.34C1074.9,24.16,1049.38,12.17,1024.28,0Z"/><path class="cls-2" d="M1088.61,0c37,26.75,87,41.34,160.35,40.85,120.76-.8,241.6.86,362.41,1.21,20.37.06,40.75-1.25,61.13-1.93v4.46c-64.93-.53-129.86-1.34-194.8-1.51-60.8-.16-121.63.54-182.44.49-32,0-64.64.75-95.77-1.83-23.14-1.92-47.16-7-65.59-13.67-21.36-7.68-37-18.57-55.18-28.07Z"/><path class="cls-2" d="M1138.09,0c28.26,19.77,73,26,120.43,26.5,91.19,1.07,182.49.49,273.73.13,46.76-.18,93.51-1.37,140.25-2.1V29c-127.5.71-255,1.7-382.52,2-56.22.13-110.19-4.14-151.33-24-4.22-2-7-4.66-10.45-7Z"/><path class="cls-2" d="M1338.2,719.4c58.75-4.39,117.7-8.28,176.18-13.3,53-4.55,105.52-6.11,158.12.56v2.23c-80.59-8.48-158.2.76-236.39,7.68-24.1,2.13-49.56,1.31-73.44,3.75-17.27,1.76-33,6.68-49.34,10.18l-66.37,23h-24.74l64.89-22.37Z"/><path class="cls-2" d="M1247,753.47l66.37-23c12.92-2.06,25.53-5.27,38.81-6,63.45-3.45,126.95-7.28,190.69-8.87,43-1.08,86.43,1.32,129.67,2.17v4.46c-58.14-8-116.76-4.35-175.37-1.52-43.14,2.09-86.48,3.49-129.39,6.27-16.6,1.08-32.27,5.09-48.37,7.76l-47.68,18.7Z"/><path class="cls-2" d="M1202.43,0c32.78,10.67,70.92,13.57,109.62,13.45,120.16-.35,240.3-1.47,360.45-2.3v2.23c-49.23.84-98.45,2.18-147.69,2.42-81.36.38-162.93,1.5-244-.7-31.62-.85-62.17-9.82-93.21-15.1Z"/><path class="cls-2" d="M1291.48,753.47c18.89-11.29,46-13.37,74.73-13.38q153.13-.09,306.29,0v4.46c-56.66-.67-113.31-1.76-170-1.88-50.94-.11-102,.13-152.78,1.74-16.52.53-32.27,5.9-48.37,9.06Z"/><path class="cls-2" d="M484.93,0c26.68,8.56,52.28,17.93,80.31,25.47,35,9.4,75.18,10.91,112.49,5C733.32,21.75,786.82,10.3,841.2,0h14.85C796.39,15.7,734.62,29.38,666.21,35.16,621,39,577.86,35.25,539.75,22.73Q505,11.31,470.08,0Z"/><path class="cls-2" d="M1271.69,753.47l47.68-18.7c48.07-1.86,96.07-4.7,144.23-5.38,69.57-1,139.26-.37,208.9-.44v4.46c-43.15-1.18-86.32-3.45-129.45-3.27-55.64.22-111.22,2.83-166.88,3.59-38.4.52-70.35,6-94.58,19.74Z"/><path class="cls-2" d="M539.36,0c35.23,15.66,77.49,23.06,126.84,20.79,47-2.16,90.83-9,130.47-20.79h19.79C770,8,724.77,18.32,676.79,23.42,618.1,29.66,568,17.51,524.51,0Z"/><path class="cls-2" d="M0,31.21c26.39-2.17,53.74-3,78.94-6.81C127.49,17.14,174.83,8.23,222.68,0h24.74C166.65,14.29,87.41,30.74,0,35.67Z"/><path class="cls-2" d="M1326.12,753.47c19.36-.89,38.72-2.5,58.07-2.53,96.11-.13,192.21.16,288.31.3-6.59.74-13.19,2.13-19.79,2.13Q1489.42,753.58,1326.12,753.47Z"/><path class="cls-2" d="M1672.5,2.24q-146.57,0-293.11-.11c-16.11,0-32.21-1.38-48.31-2.13q160.82,0,321.63.1C1659.31.11,1665.91,1.49,1672.5,2.24Z"/><path class="cls-2" d="M202.88,0A1462.73,1462.73,0,0,1,0,24.53V20.07C62.43,18.88,121.3,11.26,178.14,0Z"/><path class="cls-2" d="M588.84,0c54.43,15.3,108.87,10.78,163.3,0H767C712.29,17.53,625.74,17.53,574,0Z"/><path class="cls-2" d="M0,8.92,103.92,0h24.74L0,13.38Z"/><path class="cls-2" d="M1672.5,185l-69.72-29.55-5.14-3.94c.46-1,.94-2.1,1.4-3.15q36.75,16.08,73.46,32.18Z"/></g></g></g></svg>