<svg xmlns="http://www.w3.org/2000/svg" viewBox="0 0 1495.34 2440.81"><defs><style>.cls-1{fill:#fbf6f2;fill-rule:evenodd;}</style></defs><title>patron-modal</title><g id="Capa_2" data-name="Capa 2"><g id="Capa_1-2" data-name="Capa 1"><path class="cls-1" d="M0,2159.55a1304.57,1304.57,0,0,0,205.31,109.94c111.75,47.46,228.1,77.82,348.43,93.29,78.17,10.06,156.57,14,235.31,9.29,113.29-6.78,223.09-30.57,330-68.16,3-1,5.93-2.21,9-3.15.61-.19,1.44.34,6.17,1.64-37,14.38-70.57,28.77-105,40.49-126.92,43.24-257.55,60.4-391.51,55.68-205.55-7.24-396-64.93-572.93-168.67C43,2217.13,21.58,2203.67,0,2190.53Z"/><path class="cls-1" d="M0,2085.66c361.22,233.92,746,289.87,1156.23,155.08-12.7,5.75-26.1,12.35-39.9,18C966.5,2320,810.56,2343.9,649.15,2336.57c-186.56-8.46-361.32-58.54-525-147.42-42.42-23-82.81-49.83-124.13-74.89Z"/><path class="cls-1" d="M0,2016.53c53.49,31.86,105.38,66.86,160.79,95C288,2176,422.84,2218,564.23,2238.55c93,13.51,186.38,18.32,280.25,12.43,112.93-7.08,222-32.15,328.15-70.67,4-1.45,8-2.8,13.06-2.12-3.17,1.66-6.27,3.46-9.51,5-102.46,47.45-210,76.61-322.2,88.39q-249,26.14-488.28-48.27C291,2199.88,218.31,2171,150.14,2132.14,99.55,2103.3,50,2072.61,0,2042.75Z"/><path class="cls-1" d="M0,1952.17c16.79,10.44,33.63,20.8,50.36,31.35,175.33,110.55,365.5,179.3,571.67,203.12,117.36,13.56,234.59,14.16,351.35-5.38,81.62-13.66,161.26-35.1,238.23-65.86,4.35-1.73,8.73-3.37,14-3.12-13.94,6.64-27.71,13.66-41.83,19.88A1022.67,1022.67,0,0,1,872,2214.23c-237.32,23.84-462.32-19.73-676-124.24A1382.84,1382.84,0,0,1,10.28,1981.16C7.17,1979,3.44,1977.71,0,1976Z"/><path class="cls-1" d="M0,1890.2c30.05,18.49,59.35,38.34,90.31,55.15,50.84,27.6,101.73,55.52,154.41,79.26,142,64,291.49,99.74,446.8,111.94,152.78,12,303-.15,449.68-46.11,33.65-10.54,66.58-23.34,99.84-35.11,2.51-.89,5-1.87,8.57-.3-22,10.06-43.76,20.78-66.1,30.08-139.58,58.1-285.42,81.59-436.11,79.42-171.55-2.47-334.85-41-491.48-109.8A1460.86,1460.86,0,0,1,9.28,1916.26c-2.8-2-6.17-3.09-9.28-4.61Z"/><path class="cls-1" d="M0,1833c27.49,16.6,54.86,33.38,82.48,49.76,132,78.3,272,137.21,422.17,170.41,167.6,37.06,336.48,45.71,506.41,18.52,85-13.59,167.08-38,246.88-70.13,3.54-1.43,7.12-2.76,11.83-1.54-19.91,9.28-39.56,19.16-59.76,27.74-107.29,45.57-219.27,71.23-335.51,79.6-197.24,14.22-386.79-18.09-569.83-91.83C196.66,1972,95.61,1915.88,0,1849.68Z"/><path class="cls-1" d="M0,1778.17c162.57,103.6,334.66,185.28,524.45,225.29,191.17,40.31,382.73,45.94,574.18,1.68a1091,1091,0,0,0,190.84-62.8,6,6,0,0,1,6.37.49c-19.29,9.31-38.33,19.2-57.92,27.84-100,44-204.55,70.55-313.21,81.47a1267.51,1267.51,0,0,1-239.11,1.41c-121.81-10.78-239.21-40.58-353.28-84.09-118.17-45.08-228.69-104.57-332.32-177Z"/><path class="cls-1" d="M0,1728.11C114.34,1799,233.54,1860,360.67,1904.87c165.82,58.49,336.73,84.61,512.41,80.34,150.6-3.65,295.22-34.55,433.42-94.84a50.75,50.75,0,0,1,5.52-2.14c.63-.19,1.47.28,5.85,1.27-29.5,13.7-55.95,27-83.2,38.46-106,44.5-216.89,68.27-331.42,76.7-225.75,16.6-439.83-29-645.36-120.2-88-39-172.09-85.25-250.68-141.13-2.12-1.51-4.8-2.22-7.21-3.3Z"/><path class="cls-1" d="M0,1682.83c36.74,20.42,73.13,41.51,110.28,61.16,136.74,72.31,279,130.19,431,161.79,196.91,40.94,394,45.07,590.66-1.09a1051.57,1051.57,0,0,0,201-69.58c3-1.42,6.17-2.69,9.26-4,.52,1.13,1,2.26,1.54,3.4-34.4,16-68.21,33.42-103.3,47.75-155.41,63.45-317.85,84.42-484.39,74.79C493.41,1941.83,255,1853.68,35.13,1712c-12-7.71-23.43-16.23-35.13-24.37Z"/><path class="cls-1" d="M0,2235.82a1216.77,1216.77,0,0,0,196,102c175.17,71.45,357.49,104.6,546.55,98.13,117-4,230.57-27.49,341.2-65.48,3.59-1.23,7.24-2.25,10.87-3.36.38,1.08.77,2.17,1.17,3.26-34,13-67.6,27.15-102.14,38.49-32.73,10.76-66.46,18.48-99.73,27.64-4.08,1.12-8,2.85-12,4.29H417.13c-3.32-1.11-6.56-2.58-10-3.28-112.95-23.31-219.69-63.47-320.8-118.67C57.22,2303,28.77,2285.78,0,2269.19Z"/><path class="cls-1" d="M860.48,0C852.66,46.44,838,90.73,818.16,133.34,799.29,174,775.1,211.05,742,241.68c-76.47,70.68-184.43,78.92-273.31,20.82a134.7,134.7,0,0,1-28.29-23.94c3.32,2.06,6.66,4.1,10,6.2,47.26,30.13,97.83,48.6,154.94,45,59.26-3.78,106.36-31.62,146-73.76,48.43-51.45,77.5-113.59,97.72-180.4,3.54-11.7,6.08-23.7,9.09-35.56Z"/><path class="cls-1" d="M846.18,0C833.24,45.9,818.43,91.08,795,133c-16.55,29.62-35.83,57.17-60.82,80.39-73.5,68.31-172.45,77.77-257.69,24.22-14-8.8-26.89-19.42-40.29-29.19.61-.94,1.21-1.88,1.81-2.82,3.23,2.14,6.49,4.24,9.68,6.42,37.91,26,78.67,44.57,125.17,48.13,68.11,5.21,123-21.72,168.41-70.46,50.37-54.13,80.76-119,100.1-189.65Z"/><path class="cls-1" d="M829.5,0c-12.54,31.27-23.78,63.16-38,93.67-17.2,37-40.78,70-71.62,97.19-76.46,67.39-181.31,68.3-262.64,2.42a168.35,168.35,0,0,1-25.59-25.15c2.52,1.82,5.09,3.58,7.55,5.48,32.43,25,67.54,44.73,108.18,52.82,62.31,12.4,117.2-3.15,164.77-45C762.78,137,794.07,79.94,817.75,18.06,820,12.3,820.85,6,822.35,0Z"/><path class="cls-1" d="M810.43,0c-22.55,65.45-53.32,126-108.54,170.27-63.4,50.86-145.4,55.38-214.5,11.82-21.23-13.39-40.12-30.5-60.09-45.91l2.34-3c12.09,9,23.79,18.61,36.35,26.93,53.51,35.44,111,51.15,174,30.51,42.22-13.8,73.79-42.77,101-76.7,25.79-32.13,45-68.15,60.92-106,1-2.39.88-5.25,1.27-7.89Z"/><path class="cls-1" d="M791.36,0c-18.72,46.4-42.85,89.53-78.79,124.92-68.56,67.51-162,73.68-239,15.77-14.91-11.23-28.31-24.45-40.63-38.71,13.54,10,26.59,20.8,40.7,30,88.93,57.64,175.72,46.3,246.64-32.14C747.09,70.13,767.88,36.46,784.21,0Z"/><path class="cls-1" d="M769.9,0c-19.85,43.06-45.75,81.82-83.3,111.42-62.85,49.55-142.83,48.75-210.17-2.19C460.26,97,446.1,82.14,433,66.39c14.53,11.25,28.47,23.4,43.71,33.59,51,34.09,105.62,47.54,164.67,23.32,37.42-15.35,65.42-43.17,89-75.13C741.58,33,750.45,16.11,760.37,0Z"/><path class="cls-1" d="M746.07,0c-31.45,55.31-71.66,100.27-137.86,112.66-32.16,6-63.31.21-92.81-13.54C480.46,82.85,453,57.54,427.74,24.52,445,39,459.13,51.86,474.33,63.39c26.35,20,55.78,33.24,89,37.33,48.92,6,90.22-10.89,124.46-44.34,17.3-16.91,31-37.47,46.39-56.38Z"/><path class="cls-1" d="M445.74,0c16.08,13.7,30.76,29.64,48.49,40.7,75.3,47,149.75,31.92,208.21-37.47.63-.75.5-2.14.73-3.23h16.68c-19.56,27-42.62,50.64-72.78,65.43-55.4,27.15-108.41,18.54-157-16.38C471,35.36,455.63,16.51,438.59,0Z"/><path class="cls-1" d="M488.64,0C538.85,42.86,620.05,42.86,665,0H684.1c-28.42,31.23-63.76,47.11-105.94,45.86C537.6,44.65,503.61,27.37,474.34,0Z"/><path class="cls-1" d="M629.27,0c-31.78,14.88-63.56,13.85-95.34,0Z"/><path class="cls-1" d="M1365.32,1779.64c-59.41,35.13-121,61.37-185.09,81.66-138.39,43.78-280.51,57.78-424.71,48.15-248.94-16.63-477.74-96.48-690.1-225.67-15.57-9.48-30.19-20.51-45.22-30.87-1.24-.85-2.24-2-5.88-5.42,29.26,15.85,55.33,30.5,81.86,44.26,156.51,81.14,319.16,145.21,493.53,176.36a1466.65,1466.65,0,0,0,374.85,18.06q196.7-15.51,376.16-96.85c7.22-3.26,14.33-6.8,21.5-10.17C1362.49,1779,1362.92,1779.24,1365.32,1779.64Z"/><path class="cls-1" d="M49.52,1629.1c71.88,32.43,143.08,66.48,215.79,96.94,148.5,62.19,302.85,102.08,463.74,115,146.67,11.74,292,4.74,435.19-31.45a1060.87,1060.87,0,0,0,201-73.1c2.7-1.29,5.55-2.24,8.34-3.36.47,1,1,2,1.43,3.06-29,14.35-57.5,29.72-87,42.84-105.48,46.9-216.47,72.07-331.13,82.57-224.18,20.52-438.81-20.09-647-101.25-86.29-33.64-170-72.87-247.69-123.83-4.28-2.81-8.45-5.77-12.67-8.66C49.55,1628.24,49.53,1628.67,49.52,1629.1Z"/><path class="cls-1" d="M83.17,1604.8c33.8,15.56,67.34,31.72,101.43,46.59,139.86,61,283.69,109.15,434.88,133.21a1478.9,1478.9,0,0,0,401.28,8.92c128.73-14.64,251-50.41,367-108.25a49.71,49.71,0,0,1,5-1.88c.46,1,.92,2,1.39,2.94-29.24,14.87-58,30.74-87.77,44.42-111.64,51.32-229.69,77.51-351.67,87.78-232.57,19.58-454.28-26.06-669.34-111.46-66.5-26.42-131.2-56.6-192.36-94-3.69-2.26-7.27-4.72-10.91-7.08Z"/><path class="cls-1" d="M102.61,1578.07c150.63,68.25,304.49,125,466.86,156.13,203.88,39.09,407.34,39,609.65-10.62,76.2-18.69,149-47.15,218.91-82.77,3.47-1.77,7-3.42,11.56-3.28-12.92,7.57-25.66,15.49-38.82,22.64-95.44,51.92-197.39,84.77-304.26,102.84a1274.38,1274.38,0,0,1-341.87,11.75c-144.18-14.55-283.66-49.2-419-100.67-66.88-25.43-132.15-54.27-194-90.36C108.5,1582,105.59,1580,102.61,1578.07Z"/><path class="cls-1" d="M135.84,1557.06c13.76,5.73,27.49,11.53,41.28,17.19,137,56.14,277.13,101.55,423.49,126.06,207.13,34.68,412.69,30.25,615.86-26.18,67.1-18.63,131.18-45.38,193-77.45,3-1.57,6.15-2.94,9.23-4.41l1.4,2.77c-24.47,13.32-48.56,27.39-73.47,39.83-103.41,51.63-213.52,80.57-327.71,95.18-126.53,16.18-252.74,13.17-378.58-7-169.54-27.22-332.21-76.26-485.85-153.75-6.58-3.32-13-6.93-19.52-10.41Z"/><path class="cls-1" d="M158,1534.09c44.2,16.23,88.11,33.28,132.64,48.52,115.1,39.4,232.36,70.18,353.14,86.75,136.86,18.78,273.65,19.4,410.54.52,98-13.51,193.11-37.59,284-77.11,26.9-11.7,53-25.3,79.39-38,3.48-1.68,6.89-3.51,11.52-3.48-3.17,2.18-6.25,4.49-9.52,6.51C1318.37,1620.3,1208,1658.53,1091.42,1680c-135.8,25.07-272.18,27.86-409,9.88-177.39-23.3-348.06-69.82-509.71-147.49-5-2.39-9.85-5-14.77-7.54C157.94,1534.62,158,1534.36,158,1534.09Z"/><path class="cls-1" d="M183.38,1514.07c69.49,22.1,138.64,45.38,208.56,66,92.65,27.35,187.24,46.11,283.27,57.21a1497.17,1497.17,0,0,0,370.49-3.25c118.13-15.69,231.75-46.51,339-99.14,17-8.33,33.72-17.21,51.79-24-3.19,2.19-6.31,4.49-9.59,6.54-105.86,66.32-221.83,105.16-344.16,126.81-91.87,16.25-184.5,23.1-277.61,18.51-211-10.38-413.79-56.51-607.16-142.41-4-1.77-7.86-3.78-11.76-5.75a33.23,33.23,0,0,1-3-1.92C183.31,1513.16,183.34,1513.62,183.38,1514.07Z"/><path class="cls-1" d="M1453.48,1467c-30.11,17.08-59.58,35.41-90.44,51-107.43,54.28-222.06,84.67-341,99.93-92.92,11.92-186.12,12.84-279.38,5.33-181.68-14.62-357.12-55.53-525.21-126.7-3.25-1.37-6.41-3-9-6.19,8.41,3,16.81,6,25.23,8.9,9,3.13,18,6.28,27,9.28,138.29,45.76,279.3,79.56,424.38,94.58,200.13,20.71,397,6.26,588.78-58,58.45-19.6,114.21-45.51,167.72-76.18,3.3-1.89,6.77-3.49,10.15-5.22Z"/><path class="cls-1" d="M1458.91,1428.92c-31.12,17.8-61.63,36.77-93.47,53.17-97,49.94-200.8,78.31-308,95.37A1281.85,1281.85,0,0,1,802.12,1592c-189-7.87-372.4-44-549.33-111.61-3.7-1.42-7.31-3.05-10.93-4.66-.68-.3-1.18-1-4.3-3.76,11.74,3.63,20.57,6.32,29.37,9.1,122.1,38.56,246.23,68.18,373.37,84.48s254.07,17.27,381.24,1.39c96.85-12.09,192.17-31.35,282.78-68.12,48.76-19.79,95.24-45.22,142.74-68.13,3.37-1.62,6.66-3.42,10-5.14Z"/><path class="cls-1" d="M254.13,1450.18c44.68,12.25,88,24.94,131.81,36,134.76,33.95,271.25,56.13,410.53,59.07,163.63,3.46,323.89-16.31,479.27-69.3,63-21.47,122.57-50.38,179.54-84.71,3.56-2.15,7.25-4.07,10.88-6.09.64,1.1,1.28,2.21,1.93,3.31-29.8,17.72-59,36.6-89.51,53-96.86,52-201.06,82-308.94,100.26-89.17,15.1-178.88,19.8-269.35,16.71-181.58-6.2-357.82-39.1-528.8-100.4-4.84-1.74-9.59-3.76-14.36-5.7A22.5,22.5,0,0,1,254.13,1450.18Z"/><path class="cls-1" d="M1475.12,1345c-42.41,34.76-89.82,61.93-139.74,84.76-97.16,44.43-199.39,71.72-305,85.24-254.19,32.56-501.8.89-744-79.94-1.88-.63-3.73-1.35-5.54-2.14-.69-.29-1.26-.88-4.16-3,5.16,1.18,7.86,1.67,10.5,2.41,148.16,42.28,298.58,71.64,452.76,79.9,178,9.55,352.5-9.09,522.36-64.79,70.86-23.24,137.49-55.6,200.72-95C1467.08,1349.93,1471.11,1347.49,1475.12,1345Z"/><path class="cls-1" d="M1475.77,1311.15c-51.75,42.31-109.57,74.39-171.11,99.71-104.29,42.89-213,68.47-325.08,78.94-225.87,21.09-446.85-4.91-663.32-71.67a112.35,112.35,0,0,1-22-9.07c26.36,6.66,52.64,13.65,79.09,19.91,161.8,38.27,325.45,61,492.1,55.22,161.5-5.54,319.12-32,468.2-96.87,44.95-19.54,87-45.69,130.38-68.88C1468.08,1316.26,1471.87,1313.59,1475.77,1311.15Z"/><path class="cls-1" d="M1482.32,1273.57c-39.66,34.39-83.9,61.53-130.72,84.39-102.23,49.93-210.68,79.31-322.85,95.74-154.92,22.69-309.64,17.16-464-5.29-81-11.77-161-28.45-239.1-53.39a34.34,34.34,0,0,1-10.58-5c28.87,6.69,57.65,13.77,86.62,20,146.41,31.53,294.28,50,444.3,45.9,164.39-4.52,324.5-31.72,477.21-95.11,52.55-21.81,102.19-49.28,149.5-80.92C1475.88,1277.77,1479.11,1275.68,1482.32,1273.57Z"/><path class="cls-1" d="M1487.06,1237.62c-54.92,47.43-116.81,83.44-183.48,111.3-128.1,53.53-262.07,80.92-400.34,88.28a1735.43,1735.43,0,0,1-526.52-52.44c-13.06-3.35-25.93-7.39-38.89-11.15a5.92,5.92,0,0,1-3.72-2.73c26.67,5.78,53.27,11.87,80,17.29,145.67,29.59,292.67,45.47,441.45,39.72,163.17-6.3,321.77-35.34,472.61-100.08,51.92-22.3,100.91-50.16,147.38-82.38C1479.36,1242.78,1483.22,1240.22,1487.06,1237.62Z"/><path class="cls-1" d="M1488.08,1210.25c-31.54,21.1-62.18,43.73-94.8,63-108.44,64.11-227.06,99.78-350.43,120.54-152.36,25.63-305.22,24.18-458.21,5.54-75.37-9.18-149.94-22.47-223.12-42.94-3.41-1-6.8-2-9.83-4.71q18.42,3.88,36.84,7.77c152.22,31.73,305.92,48.32,461.51,42,167.23-6.85,329.49-37.69,483.27-106.12,50.55-22.5,98.06-50.53,143.17-82.6,2.88-2,5.78-4.06,8.68-6.08Z"/><path class="cls-1" d="M366.36,1333.16c36.26,6.5,72.42,13.61,108.79,19.39,183.53,29.19,367.31,35.79,551.33,4.48,132.33-22.52,259.8-59.71,376.5-128.12,22.57-13.22,44-28.33,66-42.58,3.18-2.07,6.32-4.18,11-4.35-3.1,2.56-6.16,5.16-9.3,7.68-88.88,71.21-190.89,115.75-299.32,147.22-146.45,42.5-296.27,54.64-448,48.88-110.55-4.19-219.94-17.6-327.6-43.71-10-2.42-19.91-5.11-29.87-7.68C366.1,1334,366.23,1333.56,366.36,1333.16Z"/><path class="cls-1" d="M1495.34,1138.85c-24,18.37-47.32,37.73-72.13,54.92-82.85,57.41-175,94.37-271.57,121.23-136.19,37.89-275.33,50.11-416.19,46.75-85.85-2-171.17-9.87-255.74-24.91-30.38-5.4-60.52-12.12-90.77-18.24.17-.94.35-1.88.52-2.83,19.12,3.38,38.21,6.93,57.35,10.11,168.53,28,337.74,37.12,507.74,16,135.11-16.81,265.82-50.08,388.78-110a787.29,787.29,0,0,0,142.74-90c2.38-1.89,4.81-3.71,7.23-5.57Z"/><path class="cls-1" d="M1482.41,1113.27c-33.28,34.29-72.08,61.68-113.45,85.33-103.84,59.38-216.07,95.37-333.19,116.65-136,24.7-273,28.59-410.54,17.56-75.29-6-149.88-16.46-223.44-33.8a34.87,34.87,0,0,1-11.24-4.29c18.94,3.3,37.85,6.8,56.83,9.86,142.83,23,286.4,32.24,430.82,20.54,155.87-12.63,306.52-46.62,448.62-113.82,52.6-24.87,101.41-55.94,147.36-91.57C1476.93,1117.59,1479.66,1115.42,1482.41,1113.27Z"/><path class="cls-1" d="M409.52,1278.49c41.63,5.74,83.16,12.45,124.92,17.06,223.5,24.65,443.95,13.56,659.11-57.74,109.23-36.19,210.17-87.38,299.12-161.61-15.54,13.49-30.65,27.5-46.68,40.36-83.33,66.89-178.85,109.93-280,141.41-143.61,44.68-291.25,59.56-441,57.32-103.07-1.53-205.25-11.8-306.16-33.43-3.44-.74-6.79-1.87-10.19-2.81Z"/><path class="cls-1" d="M427.56,1261c25.45,3.54,50.85,7.45,76.35,10.56,163.29,19.88,326.29,20.48,488.81-7.82a1313.8,1313.8,0,0,0,223.89-59.62c92.86-33.76,178.46-80.22,254.25-144.06,1.63-1.38,3.47-2.51,5.21-3.76l1.93,2.38c-17.39,14.64-34.21,30-52.28,43.8-46.59,35.46-97.22,63.83-150.71,87.91-124.49,56-255.4,85-390.69,96.75-148.78,13-296.63,6.69-443.41-21.5-4.58-.88-9.09-2.08-13.63-3.13C427.37,1262,427.46,1261.48,427.56,1261Z"/><path class="cls-1" d="M433,1242.18c26.64,3.55,53.23,7.61,79.93,10.58,224,24.86,444.74,13.64,660.1-58.5,63.91-21.41,125.72-47.46,183.7-82.27,44.71-26.84,86.35-57.66,126.19-91.73-2.67,2.84-5.29,5.72-8,8.52s-5.55,5.67-8.42,8.41a639.3,639.3,0,0,1-147.84,105.48c-113.64,59-234.51,95.29-361.11,113.42a1606.93,1606.93,0,0,1-383.7,8.54c-47.28-4.58-94.21-12.64-141.3-19.11Z"/><path class="cls-1" d="M447.54,1225.43c29.49,3.42,58.95,7.18,88.49,10.2,105.75,10.8,211.57,11.88,317.49,2.22,126.86-11.56,250-38.91,368.33-86.46,68.21-27.4,133.22-60.79,191.83-105.65,15.23-11.66,29.91-24,46.55-34.15-11.18,10-22.15,20.21-33.58,29.91-42.37,36-89.29,64.72-138.81,89.92-100.41,51.11-207,81.88-317.63,100.12-136.73,22.55-274.14,25.47-411.89,11.7-37-3.71-73.83-10-110.73-15.07C447.57,1227.25,447.55,1226.34,447.54,1225.43Z"/><path class="cls-1" d="M461.74,1190.19c33.12,3.31,66.19,7.2,99.37,9.83,114.81,9.14,229.32,6.65,343.47-9.59,105.06-14.94,206.88-41.67,304.81-82.77C1301,1069.2,1385,1018.83,1455.7,948.12c1-1,2.25-1.8,5.27-.77-13.86,13.75-27.22,28-41.68,41.14-82.5,74.65-180.19,122.2-284.42,157.57-98.65,33.49-200.41,51.77-304.09,60.19-113.25,9.21-226.17,7-338.66-9.75-10.17-1.52-20.27-3.49-30.4-5.26C461.73,1190.89,461.73,1190.54,461.74,1190.19Z"/><path class="cls-1" d="M471.62,1173c28.38,2.81,56.71,6.2,85.14,8.34,206.44,15.46,408.53-3.67,603.44-77.58,98-37.19,189.08-86.47,266.27-158.81,6.06-5.67,12.19-11.25,18.32-16.83.1-.09.6.26,2.35,1.08-8.64,9-16.72,18-25.32,26.44-69.28,67.8-152.06,114.08-241,150.22-107.13,43.51-219,67.47-333.72,78.9-114.29,11.39-228.41,10.74-342.29-5-11-1.52-21.91-3.49-32.85-5.25C471.83,1174,471.72,1173.53,471.62,1173Z"/><path class="cls-1" d="M1375.19,1047.39c-2.15,3.41-3.5,8-6.55,10.08-74.91,51.29-156.8,88-243.19,114.93-119.81,37.41-242.89,54.34-368,58.12-98.29,3-196-2.6-292.92-19.81a61.53,61.53,0,0,1-14.85-4.21c19.87,2.47,39.73,5.14,59.64,7.38,132.36,14.92,264.72,15.3,396.75-2.94,153.14-21.15,299.23-64.29,433.4-143.21,11.8-7,23.93-13.35,35.9-20Z"/><path class="cls-1" d="M481,1156.08c18,1.78,36,3.67,54,5.34,140,12.95,279.31,7.76,417.32-19.72,138.67-27.6,270.27-74.18,387.05-155.75,37.86-26.44,71.69-58.66,106.83-89.64-3.18,3.89-6.27,7.86-9.56,11.64-57.48,66.2-128.59,113.9-206.62,152.2-108.35,53.19-223.33,83.81-342.43,100.15-111.38,15.28-223.1,18-335,7-24-2.36-47.88-6-71.83-9.08C480.89,1157.5,481,1156.79,481,1156.08Z"/><path class="cls-1" d="M1430.87,877.79c-25.41,35.18-56.54,64.4-90.91,90.08-89,66.45-188.79,110.36-295.18,139.85-148.3,41.13-299.55,54.27-452.91,44.92-23.75-1.44-47.41-4.5-71.09-7.09a161,161,0,0,1-30.29-6.07c22.63,2,45.23,4.49,67.89,6,215,14.72,424-9.46,623.2-96.52,92.93-40.62,177.4-93.76,246.5-169.2A16.65,16.65,0,0,1,1430.87,877.79Z"/><path class="cls-1" d="M497.53,1122.75c23.56,2,47.09,4.35,70.68,5.78,216.2,13.16,425.48-14.34,623.41-107.27,88.24-41.43,167.73-95,231.72-169.65a13.65,13.65,0,0,1,2.66-1.91l2.4,2.21c-17.23,18.67-33.54,38.31-51.86,55.85-78,74.7-171.65,123.36-272.18,159.71-99.13,35.83-201.77,55.64-306.64,64.61-93.68,8-187.2,7.42-280.52-4.87-6.63-.87-13.23-2-19.84-3C497.42,1123.71,497.47,1123.23,497.53,1122.75Z"/><path class="cls-1" d="M504.72,1106.15c26.84,2,53.66,4.64,80.53,5.92,204.5,9.77,402.36-18,589.34-105.69,93.07-43.63,176.58-100.33,242.09-181,.45-.56,1.3-.8,3.7.2-11.13,13.49-21.79,27.41-33.49,40.39-65.11,72.21-146.19,121.39-234.08,160.21-104,45.91-213.39,71.56-326,84.49-100.21,11.51-200.42,12.49-300.63,0-7-.88-14.08-2-21.11-3C504.94,1107.21,504.83,1106.68,504.72,1106.15Z"/><path class="cls-1" d="M1409.22,800.28c-26.49,42.21-60.27,77.67-99.1,108.3-95.43,75.3-204.26,122.89-321.11,153.07a1254.79,1254.79,0,0,1-461.83,31.78,227.76,227.76,0,0,1-31.56-6c21,1.85,41.91,4,62.91,5.48,202.8,13.82,399.37-11.51,586.21-95.29,88.4-39.63,169.29-90.63,235-163.2C1389.8,823.3,1399.39,811.68,1409.22,800.28Z"/><path class="cls-1" d="M499.71,1071.63c40.89,2.47,80.82,6.25,120.82,7.06,209,4.28,408.25-33.49,591.54-138.76,69.54-39.94,130.59-90,179.81-153.79a5.71,5.71,0,0,1,4.87-2.45c-2.26,3.37-4.45,6.77-6.79,10.08-51.39,72.61-120.19,124.77-197.21,167.06-110,60.37-228.41,94.18-352,111.39-101.09,14.07-202.42,16.75-304,4.92-6.3-.73-12.59-1.53-18.86-2.46C512.05,1073.81,506.22,1072.73,499.71,1071.63Z"/><path class="cls-1" d="M1385.69,763.38c-10.55,14.09-20.55,28.65-31.76,42.2-55.94,67.65-126.71,116-204.38,155-101.07,50.72-208.68,79.73-320.27,95.18-79.26,11-158.86,14.7-238.74,9.07a854.88,854.88,0,0,1-85.85-10.65c22.48,1.77,44.93,3.92,67.44,5.26,170.56,10.12,336.82-10,496.65-72.63,96.17-37.66,185.14-87.57,258.94-161.18,19.89-19.84,37.63-41.85,56.36-62.85Z"/><path class="cls-1" d="M508,1038c37.6,2.16,75.18,5.47,112.81,6.3,152.89,3.41,301.56-18.87,443.85-76.71,90.07-36.61,173.61-84.19,243.41-153,22-21.63,41.32-45.91,64.31-71.73-5.65,8.88-9.29,15.1-13.41,21-45.29,64.67-105.08,113.17-172.19,153.22-107.58,64.18-224.89,100.38-348,119.2-96.61,14.78-193.58,18.33-290.87,7.52-13.37-1.48-26.68-3.53-40-5.33Z"/><path class="cls-1" d="M1361.23,716.62c-14.44,29.92-34.07,56.58-56.93,80.77-68.65,72.62-152.14,122.93-243.92,160.24-102.74,41.76-210,64-320.4,72.09-70.33,5.13-140.45,3.74-210.4-5.17a95,95,0,0,1-17.18-3.83c26.06,1.9,52.1,4.48,78.2,5.59,185.65,7.88,364-21.5,531-106.31,88.1-44.74,166.34-102.08,225.21-183C1351.72,730.26,1356.43,723.41,1361.23,716.62Z"/><path class="cls-1" d="M1351.75,691.2c-17,36.6-40.63,68.59-68.51,97.36-66.3,68.45-145.79,117.25-233.6,152.56-160,64.32-326.19,85.58-497.51,68.89a258.8,258.8,0,0,1-35.1-5.92c27.43,1.87,54.84,4.51,82.3,5.49,186,6.67,363.64-25.7,528.5-115.35,79-42.93,148.84-97.14,202-170.86C1337.37,712.84,1344.44,701.93,1351.75,691.2Z"/><path class="cls-1" d="M519.62,987.35c28.06,1.8,56.09,4.39,84.17,5.26,191.77,6,373.44-30.44,539.46-130.61,77.21-46.59,143-105.4,190.12-183.37a10.82,10.82,0,0,1,2.3-2.1l2.47,1.66c-13,19.63-25,40-39.2,58.75-51.14,67.42-117.7,116.32-191.64,155.71-98.19,52.31-203.49,82-313.38,96.59-84.64,11.27-169.33,12.78-254.13,2.07-6.66-.84-13.29-1.93-19.94-2.9C519.77,988.06,519.69,987.7,519.62,987.35Z"/><path class="cls-1" d="M1318.75,661.53c-14.51,34.12-35.39,63.85-60.19,90.73C1181.84,835.38,1086.87,890,981.1,926.66c-142.55,49.36-289,65.63-439,47.78A113.45,113.45,0,0,1,524,970.8c32.44,1.77,64.85,4.64,97.3,5.13,191,2.88,370.5-37.67,531.76-144.4,65.72-43.5,121.3-97.27,162.37-165.15C1316.41,664.71,1317.63,663.15,1318.75,661.53Z"/><path class="cls-1" d="M513.12,952.39c37.14,2.23,72.71,5.57,108.33,6.28,146.19,3,286.81-22.44,419.4-86,78-37.39,148.93-85,206.23-150.64,18.2-20.82,33.2-44.43,49.61-66.81,2-2.77,3.76-5.77,7.65-7.66-2.37,4.76-4.56,9.62-7.14,14.26-42.1,75.58-104.17,131.38-176.36,176.81-99,62.29-207.9,97.21-322.93,114.56-88.46,13.35-177,15.32-265.73,2.42C526.32,954.79,520.49,953.66,513.12,952.39Z"/><path class="cls-1" d="M510,916.52c31.51,2.44,60.72,5.66,90,6.81,171,6.71,332.47-26.6,479.7-117,85.87-52.74,156.46-120.42,200.86-212.68l3.07,1.78c-11.83,21.72-22.3,44.33-35.74,65-45.82,70.47-108.85,122.6-181,164.05-100.75,57.9-210.13,88.48-325.21,100.42-71.87,7.46-143.5,6.48-214.91-5C521.75,919.05,516.75,917.87,510,916.52Z"/><path class="cls-1" d="M516.48,900c35.11,2.24,69.88,5.75,104.71,6.46,143.9,3,281.11-24.72,408.3-94,93.76-51.07,172.82-118.14,224.23-213.89,1.87-3.5,3.57-7.08,5.39-10.61,1.61-3.1,3.27-6.18,4.9-9.27l3.2,1.67c-11.76,21.74-22.18,44.34-35.49,65.09-49.52,77.2-119,132.3-198.88,175.1-93.68,50.18-194.34,76.91-299.67,87.48-71.52,7.17-142.7,5.48-213.53-7.14A31.65,31.65,0,0,1,516.48,900Z"/><path class="cls-1" d="M1290.5,623.27c-14.89,37.73-36.75,70.58-63.53,100.09-77.82,85.78-175,140.88-283.72,177-120.63,40-244.52,53.89-371.16,43q-12.45-1.06-24.84-2.78a185.35,185.35,0,0,1-28-5.66c21.86,1.77,43.69,4.07,65.59,5.25,162.9,8.72,318.93-17.8,464.65-93.65C1137,800.94,1213.43,742,1268.62,658.57,1276.25,647,1283.22,635.05,1290.5,623.27Z"/><path class="cls-1" d="M1230.4,547.78c-8.68,31.13-23.7,59.3-42.32,85.54-55.46,78.15-129.32,134.09-215.58,173.47C830.72,871.5,682.32,891.09,528.26,867c-1.18-.18-2.35-.41-3.51-.68a21.22,21.22,0,0,1-7.85-3.15c18.53,1.9,37,4.28,55.61,5.63,159.62,11.53,311-15.84,449.86-98.38,84.16-50,153.7-114.88,198.59-203.51,1.61-3.18,3.18-6.39,4.76-9.6Z"/><path class="cls-1" d="M1249.23,558.49c-12.28,39.9-32.69,75.91-59.14,108.38-75.44,92.64-173.78,150.94-285.88,187.38-120.09,39-243,50.12-368.18,31.9A32.76,32.76,0,0,1,523.48,882c11.42,1.09,22.83,2.26,34.25,3.27,168.14,14.93,327.82-12.28,475.13-97.67,86.79-50.31,158.8-116.09,205.42-206.7C1242.08,573.52,1245.58,566,1249.23,558.49Z"/><path class="cls-1" d="M1203.2,511.44c-10.36,22-19.27,44.84-31.33,65.87-49.65,86.56-123,148.15-211.42,191.35-138.69,67.75-284.79,87.81-437,60.8a41.83,41.83,0,0,1-13.73-4.52c8.51,1.2,17,2.52,25.53,3.56,169.87,20.71,330.19-5.44,475.92-99.33,82.93-53.42,148.25-122.86,186.47-215.39a27.13,27.13,0,0,1,2.37-3.85Z"/><path class="cls-1" d="M1218.56,527c-3.61,9-7,18.2-10.87,27.11-34.22,78.52-90.62,138.23-160,186.48-91.92,64-195.1,98.07-305.38,112.33-72.14,9.33-144.16,8.4-215.87-4.53a86,86,0,0,1-14.82-3.88c27.16,2.6,54.27,6.3,81.49,7.61,171.62,8.26,330.34-29.66,469.81-134,66-49.4,118-110.57,150.78-186.95a57.22,57.22,0,0,1,2.78-5Z"/><path class="cls-1" d="M474.89,638.38c122.1,34.94,241.46,30.86,355.92-25.59,115-56.71,189.69-148.79,225.85-272.14l3.64,1.54c-8.39,24.5-15,49.8-25.47,73.36C975.17,549.47,869.73,626.88,728.6,656.9c-83.75,17.81-167.11,13-248.35-16.13C478.42,640.11,476.68,639.18,474.89,638.38Z"/><path class="cls-1" d="M1106.74,389.31c-17.16,84.83-59.94,154.4-123.19,211.55-76,68.69-166.43,106.44-267.06,120.89-74,10.62-147.25,7.19-219.35-13.73-3.35-1-6.63-2.17-7.71-2.53,29.47,4.34,61,11.11,92.82,13.3C757.39,730.85,908,679.31,1025,543.87c35.48-41.08,59.94-88.55,76.9-140C1103.46,399,1105.11,394.17,1106.74,389.31Z"/><path class="cls-1" d="M499.65,746.24c51.15,10.53,102.78,16.06,155,13.87,132.76-5.57,252.13-46.61,353.21-135,60.78-53.17,104.78-117.7,131.23-194.48-.81,3.74-1.5,7.51-2.46,11.2s-2.17,7.64-3.4,11.41c-32.39,98.78-96.27,172.73-183.15,227-112.81,70.42-236.72,95.34-368.42,82.75-27.88-2.66-55.43-8.63-83.14-13.08C498.89,748.63,499.27,747.44,499.65,746.24Z"/><path class="cls-1" d="M1188.06,480.55c-15.8,61.34-46.8,113.76-89.26,159.66-71,76.78-158.88,125.7-258.42,154.52-101.45,29.38-204.46,36.32-308.8,17.85A37.52,37.52,0,0,1,518.19,808c17.26,1.94,34.49,4.2,51.77,5.77,122.72,11.11,241.19-5.66,352.93-58.61,109.21-51.76,197.44-126.69,249.77-238.55C1178.2,504.79,1182.94,492.58,1188.06,480.55Z"/><path class="cls-1" d="M504.94,768.54c32.25,3.46,62.87,8.54,93.65,9.76,183.76,7.29,344.46-45.55,471.16-184.28,36.3-39.75,62.17-86,80.74-136.43a59.07,59.07,0,0,1,4.75-10.67,313.27,313.27,0,0,1-35.8,91.11c-53.44,92-132.08,155.68-228.79,196.79-120.12,51.07-244.81,64.07-373.08,37.3-1.94-.41-3.88-.84-5.78-1.37S508.06,769.56,504.94,768.54Z"/><path class="cls-1" d="M1171.7,464c-15,60.32-44.83,112.51-86.06,158.32-66,73.31-147.68,121.83-241.22,150.92C737.06,806.6,628.08,814,517.55,791.07c-2.32-.48-4.64-1-6.94-1.63a7.7,7.7,0,0,1-4.25-2.39c21,2.72,42,6.24,63.14,8.06C718.82,808,858.85,780.49,985.05,696.53,1071.7,638.89,1136.68,563.31,1171.7,464Z"/><path class="cls-1" d="M1122.73,423.39c-10.64,25.44-19.4,51.87-32.25,76.12-50,94.29-126.81,159.85-224.19,201.12-118.14,50.06-240,60.56-364.8,28.56-3.18-.82-6.26-2-9.35-1.9,38.13,4.39,76.17,11.5,114.4,12.69,172.91,5.4,321.47-49.17,436.36-182.83,31.65-36.82,54.4-79,71.29-124.36,1.36-3.67,2.85-7.29,4.28-10.94Z"/><path class="cls-1" d="M462.67,521.5c112.22,39.83,223.23,42.79,329.38-18.19C896.7,443.19,954.72,348.37,983.11,232,987,309.79,896.32,452.81,817.7,500.28,702.38,569.91,584.48,574.72,462.67,521.5Z"/><path class="cls-1" d="M491.22,685.13c25.68,4.2,50.91,9.32,76.39,12.32C752,719.13,942.72,645.58,1044.66,476.68c17.66-29.26,28.39-62.7,42.23-94.24,1.39-3.16,2.2-6.58,3.95-9.66a315.92,315.92,0,0,1-30,89.69C1006.37,570.07,919.4,640,806.69,679.32a504,504,0,0,1-171.91,28.13c-42.93-.41-85.55-4.73-127.1-16.45-4.58-1.29-9.09-2.79-13.61-4.27A18,18,0,0,1,491.22,685.13Z"/><path class="cls-1" d="M1042.8,316.46C995.39,588.81,697.46,705.4,474.65,615.92c120.06,35.57,238,33.55,350.53-25C937.94,532.26,1009.2,439,1042.8,316.46Z"/><path class="cls-1" d="M470.14,592.33c262.25,86.55,500.53-58.7,558.57-300.21C985,569,689.92,686.52,470.14,592.33Z"/><path class="cls-1" d="M488.77,663.52c23.7,4.25,47.26,9.87,71.14,12.53C742.83,696.46,894.74,640.23,1008.36,492c31-40.45,50.59-86.92,66.44-135.34-.52,3-.94,6.08-1.57,9.09s-1.37,6.2-2.24,9.25c-40.12,140.48-132.24,232.2-267.15,282.78-57,21.37-116.4,30-177.57,28.89a483.28,483.28,0,0,1-127.83-19c-3.35-1-6.62-2.24-9.92-3.38C488.6,664,488.69,663.78,488.77,663.52Z"/><path class="cls-1" d="M956.59,190.17c-7.79,49.74-25.06,103.37-54.5,152.56-52.68,88-127.62,145.49-230.11,163.09-72.61,12.46-142.24,2-208.17-31.34a8.3,8.3,0,0,1-4.36-4.54c3.45,1.27,6.92,2.48,10.33,3.84,91,36.09,182.52,41.31,273,.52,84.13-37.92,141.42-103.67,178.73-186.67C936.54,254.23,946.52,218.58,956.59,190.17Z"/><path class="cls-1" d="M458.41,495.46c24.34,7.18,49.29,16.38,75,21.82C692.12,550.8,835.18,485.85,917.4,344c21.85-37.69,37-78,48.07-120,1-3.68,2.13-7.31,3.2-11l3.22.92c-7.8,26.89-13.86,54.43-23.69,80.55C909.77,396.65,843.85,474,739.48,512.55c-91.75,33.91-183,29.24-272-12-2.52-1.17-5-2.46-7.42-3.79A7.55,7.55,0,0,1,458.41,495.46Z"/><path class="cls-1" d="M471.88,571.37c115.35,35.24,228.9,36.14,337.22-23.59,107.53-59.3,172-152.34,203.43-269.55C989.69,394.6,932.06,488.52,827.86,548.16,713.83,613.42,594.09,619.67,471.88,571.37Z"/><path class="cls-1" d="M454.23,443.48c21.84,7.63,40.89,15.27,60.5,21,135.87,39.62,270.67-9,352.66-126.14,32.76-46.79,54.76-98.15,69.41-153,1-3.68,2.17-7.3,3.27-10.95l3.61,1.07c-8.7,28.67-15.66,58-26.39,85.9-33.21,86.34-86.62,156.43-172.45,195.85-95.12,43.68-190.12,39.13-283.14-8.6C459.81,447.61,458.14,446.17,454.23,443.48Z"/><path class="cls-1" d="M448.91,389.74c27.62,9.56,56.41,22.72,86.63,29.43,117.87,26.17,214.17-11.45,290.23-103.59,44.12-53.44,70-115.81,87-182.29,1.07-4.2,2.25-8.36,3.38-12.55l3,.8c-7.75,28-14.17,56.48-23.53,83.94C873.16,271.29,838,329.14,783.73,373.94,687.3,453.52,550.92,455.63,449,389.74,448.3,389.33,447.87,388.59,448.91,389.74Z"/><path class="cls-1" d="M469.75,547.72c223.43,80.5,463.46-29.61,528.49-291.53-20.78,114.74-76.55,208-177.17,268.84C708.86,592.84,590.17,597.26,469.75,547.72Z"/><path class="cls-1" d="M928.07,146.58c-24,125.07-75,232.79-196.86,288.95-93.61,43.12-187,34.24-276.55-16.29-2.57-1.45-4.88-3.34-7.28-5,21.84,8.26,43.13,17.94,65.35,24.44,140.52,41.09,270-9.36,350.92-135.51,28.82-44.95,48-93.82,61.3-145.24C925.93,154.14,927,150.37,928.07,146.58Z"/><path class="cls-1" d="M444.56,359.55c23.95,9.6,47.54,21,72.28,28.64,111.48,34.59,218.7.41,294.28-92.05,43.33-53,70.14-113.86,87.51-179.42,1-3.78,2-7.55,5.19-10.86-1.8,8.26-3.46,16.55-5.43,24.76-16.12,67.29-42.74,129.57-87.91,182.86-91.7,108.2-245.56,129-362.3,48.94C446.88,361.53,445.7,360.46,444.56,359.55Z"/><path class="cls-1" d="M877.86,60.13C870.15,107.78,855.92,153,834,195.56s-49.4,80.49-87.26,110.22a241.36,241.36,0,0,1-270.62,18.68c-10.18-5.91-20-12.41-30-18.64l1.61-2.92c6.36,3.46,12.65,7.06,19.09,10.36,72.51,37.29,147.08,47.38,223.47,13.47,54-24,92.71-65.78,124.26-114.66,27.81-43.09,45.91-90.4,59.79-139.49Q876.13,66.36,877.86,60.13Z"/><path class="cls-1" d="M444.92,331.48c21.35,9.37,40,19,59.56,25.92,110.13,39.12,214.42,10.28,290-78.76,48.17-56.73,76.22-123,94.5-194.16,1-3.83,2.06-7.63,4.58-11.18-1.57,8-2.93,16.08-4.77,24-17.17,74.54-45.45,143.75-97.57,201.33-88.47,97.73-231.33,113.91-339.58,38.55C449.89,336,448.35,334.42,444.92,331.48Z"/><path class="cls-1" d="M437.6,268.53c34.86,21.33,70.86,38.63,110.84,46.05,90.8,16.85,163.62-15.33,222.6-83.41,49.8-57.49,77.39-125.95,96.55-198.43.61-2.29,1.27-4.57,1.92-6.85.52-1.85,1-3.7,4-4.91C866.75,46.11,860.73,71.49,853,96.34c-17.94,57.9-44.74,111.14-86.08,156.18C674.21,353.59,536.12,350,439.7,271.14A15.79,15.79,0,0,1,437.6,268.53Z"/></g></g></svg>